<svg width="400" height="400" viewBox="0 0 400 400" fill="none" xmlns="http://www.w3.org/2000/svg">
<path d="M199.224 389.76C300.155 389.76 381.976 347.155 381.976 294.6C381.976 242.045 300.155 199.44 199.224 199.44C98.2928 199.44 16.4719 242.045 16.4719 294.6C16.4719 347.155 98.2928 389.76 199.224 389.76Z" fill="#F5F5F5"/>
<path d="M316.304 307.032C343.225 307.032 365.048 294.432 365.048 278.888C365.048 263.345 343.225 250.744 316.304 250.744C289.383 250.744 267.56 263.345 267.56 278.888C267.56 294.432 289.383 307.032 316.304 307.032Z" fill="#E6E6E6"/>
<path d="M120 262.184C138.648 272.952 139.408 290.728 120.752 301.496C102.096 312.264 71.112 311.944 52.456 301.176C33.8 290.408 33.808 272.952 52.456 262.184C71.104 251.416 101.336 251.416 120 262.184Z" fill="#E6E6E6"/>
<path d="M272.112 320.208L210.896 284.864C209.823 284.319 208.636 284.036 207.432 284.036C206.228 284.036 205.042 284.319 203.968 284.864L142.752 320.208C140.84 321.312 140.84 323.104 142.752 324.208L170.632 340.304L144.592 355.336C139.304 358.384 130.696 358.384 125.392 355.336L84.4321 331.688C82.1761 330.384 80.9281 328.744 80.9281 327.08C80.9281 325.416 82.1761 323.768 84.4321 322.464L120.728 301.504C120.919 301.404 121.088 301.266 121.225 301.099C121.362 300.932 121.463 300.739 121.523 300.532C121.583 300.325 121.601 300.108 121.575 299.893C121.549 299.679 121.48 299.472 121.372 299.286C121.264 299.099 121.119 298.936 120.946 298.806C120.774 298.677 120.577 298.584 120.367 298.532C120.158 298.481 119.94 298.472 119.727 298.507C119.514 298.542 119.31 298.62 119.128 298.736L82.8481 319.68C79.5601 321.584 77.7441 324.208 77.7441 327.072C77.7441 329.936 79.5601 332.552 82.8481 334.456L123.808 358.104C127.272 359.889 131.112 360.82 135.008 360.82C138.905 360.82 142.745 359.889 146.208 358.104L173.848 342.152L204 359.552C205.074 360.097 206.26 360.381 207.464 360.381C208.668 360.381 209.855 360.097 210.928 359.552L272.144 324.208C274.024 323.104 274.024 321.312 272.112 320.208Z" fill="#E6E6E6"/>
<path d="M342.064 265.672C342.064 265.672 344.288 232.728 343.664 220.584C343.144 210.984 341.84 206.984 341.568 204.816C341.568 204.816 339.208 182.416 339.016 163.304C338.92 154.12 338.072 147.592 333.04 136.68L300.696 144.416C300.04 149.264 297.816 181.504 297.288 210.168C296.832 235.264 297.544 257.232 297.544 257.232V258.552C297.544 260.024 297.224 261.048 296.28 263.4C295.1 266.43 293.406 269.234 291.272 271.688C290.608 272.408 285.992 276.44 285.384 277.288C283.4 279.6 287.512 280.904 290.56 280.488C293.76 280.056 298.768 278.832 300.16 276.88C301.104 275.568 301.816 271 302.784 269.68C306.056 265.216 307.4 263.28 307.424 261.872C307.472 259.296 306.584 258.28 306.264 256.824C306.528 253.784 313.096 228.784 313.208 219.928C313.264 215.712 312.976 209.904 312.976 209.904L318.064 180.688C320.032 187.984 323.488 206.096 324.656 213.048C326.072 221.544 329.776 243.352 331.968 256.36C332.808 261.376 333.2 263.912 333.568 266.24L333.656 267.232C333.728 268.496 334.648 282.016 335.144 284.832C336.184 290.744 341.44 290 342.28 285.216C343 281.152 342.104 268.544 342.08 267L342.064 265.672Z" fill="#FFA8A7"/>
<path d="M342.064 265.672C343.552 265.672 342.576 271.44 342.96 275.128C343.368 279.088 344.664 281.984 345.04 285.224C345.544 288.056 345.109 290.975 343.8 293.536C342.768 295.936 337.568 299.136 335.592 295.768C333.616 292.4 333.192 288.504 333.424 284.808C333.656 281.112 333.424 278.632 333.496 275.728C333.568 273.168 331.688 266.632 333.616 266.264L333.704 267.256C334.4 268.64 341.424 268.912 342.128 267.04L342.064 265.672Z" fill="#37474F"/>
<path d="M307.76 265.016C308.216 266.864 307.76 271.936 307.76 271.936C307.76 271.936 306.96 273.688 304.104 274.848L302.824 267.792L307.76 265.016Z" fill="#263238"/>
<path d="M304.088 274.848L297.8 272.784L296.28 267.2L303.352 270.776L304.088 274.848Z" fill="black"/>
<path d="M297.544 258.552V257.232C296.688 257.648 294.808 264.536 292.264 269.232C289.944 273.544 285.344 275.944 283.848 277.824C281.848 280.328 285.736 283.568 291.968 282.232C295.064 281.568 299.752 279.592 301.024 277.504C302.296 275.416 302.72 271.576 303.76 270.04C304.8 268.504 307.272 266.736 307.76 264.992C308.166 263.418 308.166 261.766 307.76 260.192C307.272 258.592 306.84 256.68 306.296 256.856V258.064C305.88 258.912 304.368 259.904 301.224 260.08C299.688 260.152 298.232 259.92 297.544 258.552Z" fill="#37474F"/>
<path d="M300.04 144C300.04 144 297.904 167.736 297.216 188.752C296.528 209.768 297.144 236.888 297.144 236.888C297.144 236.888 299.312 238.44 304.088 238.656C308.864 238.872 310.488 237.28 310.488 237.28C310.488 237.28 313.408 227.752 313.864 221.048C314.153 217.419 314.153 213.773 313.864 210.144L318.128 182.096C318.128 182.096 323.536 209.712 324.152 213.048C324.768 216.384 329.944 245.896 329.944 245.896C329.944 245.896 331.976 247.768 337.192 247.672C341.808 247.584 343.144 245.928 343.144 245.928C343.144 245.928 344.256 227.832 344 220.104C343.784 213.288 342.224 207.864 341.912 203.44C341.6 199.016 341.424 173.84 341.112 164.24C340.8 154.64 340 146.4 331.784 134.848L300.04 144Z" fill="#455A64"/>
<path d="M318.16 182.12L314.608 164.52C314.608 164.52 308.424 162.92 305.536 159.128C305.536 159.128 306.336 163.32 312.736 166L316.512 183.504L315.2 201.6L318.16 182.12Z" fill="#37474F"/>
<path d="M254.848 139.624C257.126 139.972 259.454 139.799 261.656 139.12C260.689 138.636 259.783 138.037 258.96 137.336C258.582 137.032 258.338 136.594 258.278 136.113C258.218 135.632 258.348 135.147 258.64 134.76C258.936 134.44 259.672 135.184 261.336 135.656C263.464 136.256 265.008 136.384 267.056 137.568C267.829 138.017 268.736 138.176 269.616 138.016C274.608 137.08 286.248 131.616 291.584 128.768C292.672 124.328 294.56 117.8 296.888 109.656C299.04 102.152 302.488 98.8719 307.992 98.9919L307.2 115.288C307.2 115.288 304.576 126.544 301.328 135.736C300.76 137.336 298.48 139.2 294.304 140.752C288.896 142.76 282.368 144.656 274.392 146.84C271.16 147.76 267.858 148.416 264.52 148.8C256.088 149.52 252.856 147.2 251.72 145.536C248.488 140.944 250.4 138.736 254.848 139.624Z" fill="#FFA8A7"/>
<path d="M322.176 98.872L329.872 99.464C329.209 102.592 329.397 105.84 330.416 108.871C331.434 111.901 333.247 114.603 335.664 116.696L332.232 130.52C332.344 132.232 335.176 137.992 337.92 144.184C332.76 151.096 307.448 153.456 299.192 147.384C300.464 140.872 301.416 135.928 301.672 133.456L301.256 124.52C290.904 116.032 303.392 103.096 307.992 98.984L313.768 98.728L322.176 98.872Z" fill="#292A73"/>
<path d="M354.584 167.744C354.025 167.308 353.583 166.742 353.295 166.094C353.008 165.447 352.885 164.739 352.936 164.032C353.072 162.744 353.368 161.128 353.904 160.504C354.44 159.88 357.8 155.312 359.288 157.968C360.888 160.864 360.56 162.04 360.56 162.04L354.584 167.744Z" fill="#F28F8F"/>
<path d="M344.216 228.8C340.604 228.68 337.088 227.615 334.016 225.712L294.072 202.64C287.904 199.08 282.872 190.384 282.872 183.256V149.744C282.868 148.622 282.569 147.522 282.006 146.552C281.443 145.582 280.634 144.777 279.662 144.218C278.69 143.659 277.588 143.366 276.466 143.367C275.345 143.368 274.243 143.663 273.272 144.224L259.288 152.32C259.106 152.436 258.902 152.514 258.689 152.549C258.476 152.584 258.259 152.575 258.049 152.524C257.839 152.472 257.642 152.379 257.47 152.25C257.297 152.12 257.152 151.957 257.044 151.77C256.936 151.584 256.867 151.377 256.841 151.163C256.815 150.948 256.833 150.731 256.893 150.524C256.953 150.317 257.054 150.124 257.191 149.957C257.328 149.79 257.497 149.652 257.688 149.552L271.712 141.448C273.17 140.606 274.824 140.163 276.507 140.162C278.191 140.161 279.845 140.603 281.304 141.444C282.763 142.284 283.975 143.493 284.819 144.95C285.663 146.407 286.109 148.06 286.112 149.744V183.256C286.112 189.256 290.512 196.856 295.712 199.872L335.656 222.928C340.768 225.88 345.512 226.392 349 224.384C352.488 222.376 354.416 217.984 354.416 212.104V169.32C354.416 162.072 359.048 153.72 364.96 150.304L374.712 144.704C374.894 144.588 375.098 144.511 375.311 144.476C375.524 144.44 375.741 144.449 375.951 144.5C376.161 144.552 376.358 144.645 376.53 144.774C376.703 144.904 376.848 145.067 376.956 145.254C377.063 145.44 377.133 145.647 377.159 145.861C377.185 146.076 377.167 146.293 377.107 146.5C377.047 146.707 376.945 146.9 376.809 147.067C376.672 147.234 376.503 147.372 376.312 147.472L366.56 153.072C361.712 155.872 357.616 163.304 357.616 169.312V212.096C357.616 219.184 355.12 224.528 350.6 227.144C348.658 228.256 346.454 228.827 344.216 228.8Z" fill="#37474F"/>
<path d="M275.2 154.632V157.248C275.2 161.432 272.264 166.528 268.632 168.616L244.408 182.608L219.776 168.384V147.056L243.664 136C247.464 134.248 253.48 134.52 257.112 136.608L268.616 143.256C272.24 145.352 275.2 150.448 275.2 154.632Z" fill="#37474F"/>
<path d="M243.664 136C247.464 134.248 253.48 134.52 257.112 136.608L268.616 143.256C272.24 145.344 272.096 148.464 268.296 150.224L244.384 161.264L219.744 147.048L243.664 136Z" fill="#455A64"/>
<path opacity="0.15" d="M246.712 156.144C247.666 156.767 248.46 157.605 249.03 158.592C249.6 159.579 249.929 160.686 249.992 161.824V179.368L244.392 182.568L219.76 168.344V147.056L226 144.176L246.712 156.144Z" fill="black"/>
<path d="M217.656 143.384C218.025 143.212 218.433 143.142 218.838 143.182C219.243 143.221 219.631 143.368 219.96 143.608L244.184 157.6C245.14 158.223 245.935 159.063 246.505 160.051C247.075 161.04 247.403 162.149 247.464 163.288V184.152C247.507 184.558 247.441 184.968 247.272 185.339C247.104 185.711 246.838 186.03 246.504 186.264C245.944 186.576 243.968 187.72 243.416 188.048C243.045 188.22 242.636 188.289 242.229 188.25C241.823 188.211 241.434 188.064 241.104 187.824L216.872 173.832C215.917 173.209 215.123 172.371 214.553 171.384C213.983 170.397 213.654 169.29 213.592 168.152V147.288C213.549 146.882 213.615 146.472 213.782 146.1C213.949 145.727 214.212 145.406 214.544 145.168L217.656 143.384Z" fill="#37474F"/>
<path d="M241.104 159.376L216.872 145.392C215.064 144.344 213.592 145.192 213.592 147.288V168.152C213.654 169.29 213.984 170.397 214.553 171.384C215.123 172.371 215.917 173.209 216.872 173.832L241.104 187.824C242.912 188.872 244.384 188.024 244.384 185.928V165.064C244.321 163.925 243.992 162.817 243.422 161.829C242.853 160.841 242.058 160.001 241.104 159.376Z" fill="#455A64"/>
<path d="M212.408 183.664V187.272C212.408 188.736 212.912 189.752 213.744 190.232L215.92 191.488C216.441 191.742 217.022 191.849 217.6 191.798C218.177 191.748 218.73 191.541 219.2 191.2L239.2 179.632V165.392L237.024 164.136L216.984 175.704C215.649 176.578 214.539 177.754 213.744 179.137C212.949 180.52 212.491 182.071 212.408 183.664ZM221.472 179.2C221.548 179.46 221.591 179.729 221.6 180C221.543 181.069 221.234 182.11 220.699 183.037C220.163 183.964 219.417 184.752 218.52 185.336C218.27 185.482 218.001 185.59 217.72 185.656C217.65 185.395 217.612 185.126 217.608 184.856C217.665 183.787 217.974 182.747 218.51 181.82C219.045 180.893 219.791 180.105 220.688 179.52C220.936 179.385 221.199 179.277 221.472 179.2Z" fill="#292A73"/>
<path opacity="0.2" d="M215.808 191.408C215.85 191.445 215.895 191.477 215.944 191.504L215.864 191.456L213.76 190.232C212.92 189.768 212.424 188.752 212.424 187.28V183.672C212.476 182.069 212.942 180.506 213.776 179.136L215.952 180.392C215.126 181.765 214.664 183.326 214.608 184.928V188.536C214.549 189.47 214.85 190.392 215.448 191.112C215.556 191.225 215.676 191.324 215.808 191.408Z" fill="black"/>
<path opacity="0.5" d="M239.2 165.392L219.2 176.96C217.843 177.806 216.725 178.985 215.952 180.384L213.776 179.128C214.548 177.731 215.663 176.553 217.016 175.704L237.056 164.136L239.2 165.392Z" fill="white"/>
<path opacity="0.2" d="M221.6 180C221.599 179.711 221.561 179.424 221.488 179.144C222.808 178.784 223.776 179.608 223.776 181.256C223.718 182.324 223.41 183.364 222.877 184.291C222.343 185.218 221.599 186.006 220.704 186.592C219.28 187.392 218.064 186.984 217.728 185.656C218.01 185.595 218.281 185.486 218.528 185.336C219.422 184.75 220.166 183.961 220.7 183.034C221.233 182.107 221.542 181.068 221.6 180Z" fill="black"/>
<path d="M193.936 172.992V176.608C193.936 178.064 194.44 179.088 195.272 179.56L197.448 180.824C197.969 181.072 198.547 181.175 199.122 181.122C199.696 181.068 200.246 180.86 200.712 180.52L220.712 168.944V154.728L218.536 153.464L198.536 165.032C197.198 165.905 196.085 167.08 195.286 168.463C194.486 169.846 194.024 171.397 193.936 172.992ZM203 168.504C203.073 168.784 203.11 169.071 203.112 169.36C203.054 170.429 202.745 171.469 202.21 172.396C201.675 173.324 200.929 174.111 200.032 174.696C199.779 174.834 199.51 174.941 199.232 175.016C199.156 174.743 199.118 174.46 199.12 174.176C199.177 173.108 199.485 172.068 200.019 171.141C200.553 170.214 201.297 169.426 202.192 168.84C202.444 168.691 202.716 168.578 203 168.504Z" fill="#292A73"/>
<path opacity="0.2" d="M197.544 180.88H197.504H197.448L195.272 179.608C194.432 179.136 193.936 178.12 193.936 176.648V173.04C193.944 172.269 194.066 171.504 194.296 170.768C194.537 169.981 194.867 169.224 195.28 168.512L197.456 169.76C197.25 170.117 197.065 170.485 196.904 170.864C196.407 171.939 196.135 173.104 196.104 174.288V177.896C196.036 178.825 196.321 179.745 196.904 180.472C197.092 180.644 197.309 180.782 197.544 180.88Z" fill="black"/>
<path opacity="0.5" d="M220.736 154.728L200.736 166.296C199.377 167.14 198.258 168.319 197.488 169.72L195.312 168.472C196.071 167.073 197.172 165.89 198.512 165.032L218.512 153.464L220.736 154.728Z" fill="white"/>
<path opacity="0.2" d="M203.104 169.352C203.105 169.066 203.07 168.781 203 168.504C204.312 168.136 205.288 168.968 205.288 170.616C205.23 171.684 204.922 172.724 204.389 173.651C203.855 174.578 203.111 175.366 202.216 175.952C200.784 176.752 199.576 176.344 199.24 175.008C199.523 174.949 199.794 174.84 200.04 174.688C200.934 174.102 201.677 173.314 202.21 172.386C202.742 171.459 203.048 170.42 203.104 169.352Z" fill="black"/>
<path d="M200 159.64C199.733 159.641 199.474 159.552 199.264 159.388C199.054 159.224 198.904 158.995 198.84 158.736L195.64 146.192C195.56 145.883 195.607 145.556 195.769 145.281C195.931 145.006 196.195 144.808 196.504 144.728C196.813 144.648 197.14 144.695 197.415 144.857C197.689 145.019 197.888 145.283 197.968 145.592L201.168 158.144C201.209 158.296 201.218 158.455 201.197 158.612C201.175 158.768 201.123 158.918 201.042 159.054C200.962 159.189 200.855 159.308 200.728 159.401C200.601 159.495 200.457 159.563 200.304 159.6C200.205 159.626 200.102 159.639 200 159.64Z" fill="#E0E0E0"/>
<path d="M190.992 164.872C190.722 164.873 190.46 164.783 190.248 164.616L178.336 155.2C178.204 155.105 178.094 154.985 178.01 154.846C177.926 154.707 177.872 154.553 177.849 154.392C177.827 154.232 177.837 154.068 177.88 153.912C177.923 153.755 177.996 153.609 178.097 153.482C178.198 153.355 178.323 153.25 178.465 153.172C178.608 153.095 178.764 153.047 178.926 153.032C179.087 153.017 179.25 153.035 179.404 153.084C179.559 153.134 179.701 153.214 179.824 153.32L191.736 162.728C191.985 162.926 192.146 163.215 192.183 163.531C192.22 163.847 192.132 164.165 191.936 164.416C191.824 164.559 191.681 164.675 191.517 164.754C191.353 164.833 191.174 164.874 190.992 164.872Z" fill="#E0E0E0"/>
<path d="M174.576 176.36C174.258 176.372 173.948 176.257 173.714 176.04C173.481 175.823 173.344 175.522 173.332 175.204C173.32 174.886 173.435 174.576 173.652 174.343C173.869 174.109 174.17 173.972 174.488 173.96L188.416 172.88C188.573 172.867 188.731 172.885 188.882 172.934C189.032 172.982 189.171 173.06 189.291 173.163C189.41 173.266 189.509 173.391 189.58 173.532C189.651 173.673 189.693 173.827 189.704 173.984C189.726 174.301 189.623 174.613 189.416 174.854C189.209 175.096 188.916 175.246 188.6 175.272L174.672 176.352L174.576 176.36Z" fill="#E0E0E0"/>
<path d="M365.472 154.688C365.2 151.732 364.762 148.794 364.16 145.888C362.34 139.069 359.914 132.427 356.912 126.04C355.576 123.488 352.56 119.768 350.424 116.624C347.4 112.184 345.272 109.696 342.976 106.68C337.92 100.064 335.776 99.68 329.872 99.48C329.072 101.584 327.248 110.208 333.16 117.176L345.832 130.536C346.552 131.696 354.296 144.936 355.584 149.824C355.807 150.693 355.698 151.614 355.28 152.408C354.268 154.649 353.524 157.001 353.064 159.416C352.688 161.112 351.68 162.456 352.024 162.72C352.449 163.004 352.957 163.136 353.467 163.096C353.976 163.055 354.457 162.844 354.832 162.496C355.736 161.525 356.474 160.412 357.016 159.2C357.254 159.184 357.492 159.218 357.716 159.3C357.94 159.381 358.145 159.509 358.317 159.673C358.489 159.838 358.625 160.037 358.717 160.257C358.808 160.477 358.853 160.714 358.848 160.952C358.92 161.936 358.472 163.304 358.128 165.008C358.064 165.344 357.984 165.728 357.832 166.656C357.701 167.283 357.626 167.92 357.608 168.56C359.208 168.856 360.88 167.88 363.568 165.36C365.992 163.008 366.152 159.92 365.472 154.688Z" fill="#FFA8A7"/>
<path d="M323.552 94.984C323.6 93.384 328.8 89.64 331.432 85.656C333.832 81.96 337.28 71.8001 329.2 68.5521C329.2 68.5521 330.944 63.6801 327.776 60.8081C324.608 57.9361 320.344 59.7121 319.672 60.9121C319.266 59.4161 318.388 58.091 317.169 57.134C315.949 56.1769 314.454 55.639 312.904 55.6001C311.39 55.4861 309.886 55.9228 308.669 56.8298C307.452 57.7368 306.603 59.053 306.28 60.5361C305.001 59.9826 303.571 59.8857 302.23 60.2615C300.888 60.6373 299.717 61.463 298.912 62.6001C295.944 66.6881 299.88 70.4321 299.88 70.4321C299.369 70.7766 298.962 71.2532 298.701 71.8112C298.441 72.3692 298.337 72.9875 298.4 73.6C298.632 75.328 300.288 75.752 300.48 76.616C300.517 76.7968 300.494 76.9848 300.415 77.1514C300.335 77.318 300.204 77.4542 300.04 77.5392C299.876 77.6243 299.689 77.6536 299.507 77.6227C299.325 77.5918 299.158 77.5024 299.032 77.368C299.075 77.5936 299.162 77.8085 299.289 78.0002C299.415 78.192 299.578 78.3569 299.768 78.4855C299.959 78.6141 300.172 78.7039 300.398 78.7496C300.623 78.7953 300.855 78.7962 301.08 78.7521C302.944 78.6481 304.608 76.112 304.608 76.112L323.552 94.984Z" fill="#263238"/>
<path d="M306.592 68.04C304.192 69.08 301.928 72.736 301.96 82.96C301.96 91.624 304.648 93.816 305.96 94.464C307.272 95.112 309.92 94.776 312.472 94.384V99.368C312.472 99.368 307.856 105.096 311.992 107.944C322.648 106.08 323.464 99.088 323.464 99.088L323.656 88.224C323.656 88.224 325.12 89.76 327.656 87.504C329.784 85.64 330.552 82.448 328.952 80.688C327.352 78.928 325.304 78.792 323.448 80.752C323.448 80.752 320.048 80.976 314.936 77.768C309.824 74.56 308 71.304 306.592 68.04Z" fill="#FFA8A7"/>
<path d="M312.728 88.384C312.739 88.5492 312.716 88.715 312.663 88.8715C312.609 89.0281 312.524 89.1724 312.414 89.296C312.304 89.4196 312.17 89.52 312.021 89.5915C311.871 89.6629 311.709 89.7038 311.544 89.712C311.287 89.7326 311.031 89.676 310.807 89.5493C310.583 89.4227 310.402 89.232 310.287 89.0016C310.173 88.7713 310.13 88.5119 310.164 88.2569C310.198 88.0019 310.308 87.763 310.479 87.571C310.65 87.379 310.875 87.2426 311.125 87.1795C311.374 87.1164 311.637 87.1294 311.879 87.2169C312.12 87.3043 312.331 87.4623 312.482 87.6703C312.633 87.8783 312.719 88.1269 312.728 88.384Z" fill="#B16668"/>
<path d="M306.144 80.0001C306.142 80.2255 306.074 80.4454 305.949 80.6327C305.823 80.8199 305.645 80.9662 305.438 81.0534C305.23 81.1406 305.001 81.1649 304.779 81.1233C304.558 81.0817 304.353 80.976 304.191 80.8194C304.029 80.6627 303.917 80.4619 303.867 80.2419C303.818 80.0219 303.835 79.7923 303.915 79.5816C303.995 79.3709 304.135 79.1884 304.318 79.0566C304.501 78.9248 304.719 78.8495 304.944 78.8401C305.099 78.8369 305.253 78.8644 305.398 78.9211C305.542 78.9778 305.674 79.0625 305.785 79.1703C305.897 79.2781 305.986 79.407 306.047 79.5494C306.109 79.6918 306.142 79.845 306.144 80.0001Z" fill="#263238"/>
<path d="M315 80.5281C315.011 80.6933 314.988 80.8591 314.935 81.0157C314.881 81.1722 314.796 81.3165 314.686 81.4401C314.576 81.5637 314.442 81.6642 314.293 81.7356C314.143 81.807 313.981 81.848 313.816 81.8561C313.481 81.8583 313.159 81.7285 312.92 81.4949C312.68 81.2613 312.542 80.9427 312.536 80.6081C312.531 80.4463 312.557 80.2851 312.614 80.1336C312.671 79.9821 312.758 79.8433 312.868 79.7252C312.979 79.6071 313.112 79.512 313.259 79.4452C313.407 79.3784 313.566 79.3414 313.728 79.3361C313.89 79.3308 314.051 79.3575 314.202 79.4146C314.354 79.4716 314.493 79.558 314.611 79.6687C314.729 79.7793 314.824 79.9122 314.891 80.0597C314.957 80.2071 314.995 80.3663 315 80.5281Z" fill="#263238"/>
<path d="M305.344 75.416L302.904 76.848C302.991 77.013 303.111 77.1582 303.257 77.2748C303.403 77.3913 303.571 77.4766 303.751 77.5254C303.931 77.5742 304.119 77.5854 304.304 77.5583C304.488 77.5312 304.665 77.4664 304.824 77.368C305.145 77.1717 305.378 76.8595 305.474 76.4961C305.571 76.1326 305.524 75.7459 305.344 75.416Z" fill="#263238"/>
<path d="M323.496 79.344V84.144C323.188 84.1518 322.882 84.0966 322.596 83.9817C322.311 83.8667 322.051 83.6945 321.835 83.4757C321.618 83.2569 321.449 82.996 321.337 82.7092C321.225 82.4224 321.173 82.1157 321.184 81.808C321.186 81.1811 321.426 80.5785 321.855 80.1213C322.284 79.6642 322.87 79.3865 323.496 79.344Z" fill="#263238"/>
<path d="M309.296 78.856L308.808 85.768L305.16 84.912L309.296 78.856Z" fill="#F28F8F"/>
<path d="M312.504 94.4001C315.184 94.0881 320.72 92.5521 321.624 90.2961C321.266 91.4264 320.574 92.4219 319.64 93.1521C317.968 94.5921 312.496 96.0801 312.496 96.0801L312.504 94.4001Z" fill="#F28F8F"/>
<path d="M344.72 40.9441C345.741 41.3338 346.698 41.873 347.56 42.5441C348.395 43.1546 349.113 43.9107 349.68 44.7761C350.219 45.6086 350.574 46.547 350.72 47.5281C350.864 48.5753 350.734 49.6419 350.344 50.6241C350.065 51.4105 349.632 52.1337 349.072 52.7521C348.571 53.2793 347.997 53.7319 347.368 54.0961C346.755 54.446 346.113 54.7405 345.448 54.9761L343.56 55.6561C343.004 55.8568 342.469 56.1085 341.96 56.4081C341.48 56.6493 341.078 57.0208 340.8 57.4801C340.672 57.6945 340.49 57.8712 340.272 57.9921C340.167 58.0496 340.051 58.0831 339.932 58.09C339.813 58.0969 339.694 58.0771 339.584 58.0321L337.088 57.0961C336.969 57.0523 336.861 56.9851 336.769 56.8985C336.677 56.8119 336.603 56.7077 336.552 56.5921C336.497 56.4815 336.468 56.3596 336.468 56.2361C336.468 56.1126 336.497 55.9907 336.552 55.8801C336.873 55.1104 337.346 54.4137 337.944 53.8321C338.486 53.3225 339.091 52.8843 339.744 52.5281C340.374 52.1896 341.033 51.9058 341.712 51.6801C342.384 51.4561 343.008 51.2401 343.592 51.0161C344.119 50.8225 344.626 50.5759 345.104 50.2801C345.515 50.0196 345.83 49.632 346 49.1761C346.158 48.7768 346.215 48.345 346.168 47.9183C346.12 47.4916 345.969 47.083 345.728 46.7281C345.126 45.854 344.251 45.2041 343.24 44.8801C342.359 44.5298 341.392 44.4609 340.471 44.683C339.55 44.905 338.72 45.4071 338.096 46.1201C337.936 46.2887 337.75 46.4293 337.544 46.5361C337.322 46.6057 337.082 46.5885 336.872 46.4881L334.216 45.4881C334.121 45.4553 334.034 45.4036 333.96 45.3362C333.886 45.2689 333.826 45.1872 333.784 45.0961C333.738 45.0028 333.714 44.9001 333.714 44.7961C333.714 44.6921 333.738 44.5895 333.784 44.4961C334.136 43.6804 334.686 42.9655 335.384 42.4161C336.161 41.7697 337.047 41.2659 338 40.9281C339.047 40.5583 340.146 40.3584 341.256 40.3361C342.439 40.3137 343.615 40.5202 344.72 40.9441ZM339.024 60.0641C339.141 60.1056 339.247 60.1711 339.337 60.2566C339.426 60.3421 339.497 60.4455 339.544 60.5601C339.593 60.6737 339.619 60.7963 339.619 60.9201C339.619 61.044 339.593 61.1665 339.544 61.2801L338.456 64.1681C338.414 64.2848 338.349 64.3915 338.263 64.4811C338.178 64.5707 338.074 64.6412 337.96 64.6881C337.846 64.7374 337.724 64.7629 337.6 64.7629C337.476 64.7629 337.353 64.7374 337.24 64.6881L334.416 63.6241C334.299 63.5827 334.193 63.5171 334.103 63.4316C334.013 63.3461 333.943 63.2427 333.896 63.1281C333.847 63.0145 333.821 62.892 333.821 62.7681C333.821 62.6443 333.847 62.5217 333.896 62.4081L334.984 59.5201C335.027 59.4031 335.092 59.296 335.178 59.2052C335.263 59.1145 335.366 59.042 335.48 58.9921C335.594 58.9446 335.716 58.9201 335.84 58.9201C335.963 58.9201 336.086 58.9446 336.2 58.9921L339.024 60.0641Z" fill="#292A73"/>
<path d="M346.104 75.424C346.187 75.5059 346.254 75.6036 346.299 75.7115C346.344 75.8193 346.367 75.9351 346.367 76.052C346.367 76.1689 346.344 76.2847 346.299 76.3925C346.254 76.5004 346.187 76.5981 346.104 76.68L344.104 78.792C344.024 78.8772 343.927 78.9453 343.82 78.992C343.712 79.0388 343.597 79.0633 343.48 79.064C343.363 79.0683 343.246 79.0492 343.136 79.008C343.026 78.9668 342.925 78.9043 342.84 78.824L340.8 76.864C340.715 76.7838 340.646 76.6872 340.6 76.5799C340.553 76.4726 340.528 76.357 340.528 76.24C340.522 76.1226 340.54 76.0051 340.581 75.895C340.622 75.7849 340.686 75.6845 340.768 75.6L342.776 73.496C342.943 73.3313 343.169 73.2391 343.404 73.2391C343.639 73.2391 343.864 73.3313 344.032 73.496L346.104 75.424ZM358.104 60.92C358.848 61.6248 359.486 62.4331 360 63.32C360.495 64.1604 360.838 65.081 361.016 66.04C361.166 66.9593 361.119 67.8999 360.88 68.8C360.625 69.6516 360.195 70.4408 359.617 71.1171C359.04 71.7934 358.329 72.342 357.528 72.728C356.902 73.0043 356.239 73.1876 355.56 73.272C354.898 73.3464 354.232 73.3651 353.568 73.328L351.68 73.224C351.117 73.1936 350.552 73.2123 349.992 73.28C349.49 73.3354 349.014 73.5293 348.616 73.84C348.428 73.9823 348.203 74.0682 347.968 74.088C347.855 74.1006 347.742 74.0877 347.635 74.0503C347.528 74.0129 347.432 73.952 347.352 73.872L345.536 72.144C345.361 71.979 345.257 71.7522 345.248 71.512C345.236 71.3938 345.254 71.2746 345.298 71.1646C345.343 71.0545 345.413 70.9569 345.504 70.88C346.061 70.3258 346.725 69.8904 347.456 69.6C348.113 69.356 348.798 69.1973 349.496 69.128C350.169 69.0721 350.846 69.0721 351.52 69.128C352.186 69.1867 352.81 69.2267 353.392 69.248C353.927 69.2749 354.463 69.2455 354.992 69.16C355.447 69.0892 355.866 68.8698 356.184 68.536C356.464 68.2456 356.67 67.8918 356.785 67.5045C356.899 67.1173 356.918 66.7081 356.84 66.312C356.641 65.3306 356.12 64.4437 355.36 63.792C354.721 63.1671 353.905 62.7548 353.022 62.6116C352.14 62.4684 351.235 62.6012 350.432 62.992C350.234 63.0789 350.023 63.1303 349.808 63.144C349.698 63.1374 349.592 63.1085 349.494 63.059C349.396 63.0094 349.31 62.9403 349.24 62.856L347.304 61.008C347.164 60.8819 347.079 60.7073 347.064 60.52C347.059 60.4211 347.075 60.3222 347.111 60.2298C347.146 60.1374 347.201 60.0537 347.272 59.984C347.877 59.4085 348.613 58.9885 349.416 58.76C350.328 58.4872 351.281 58.3762 352.232 58.432C353.278 58.4957 354.307 58.7281 355.28 59.12C356.32 59.5301 357.269 60.1418 358.072 60.92H358.104Z" fill="#292A73"/>
<g opacity="0.6">
<path opacity="0.6" d="M346.104 75.424C346.187 75.5059 346.254 75.6036 346.299 75.7115C346.344 75.8193 346.367 75.9351 346.367 76.052C346.367 76.1689 346.344 76.2847 346.299 76.3925C346.254 76.5004 346.187 76.5981 346.104 76.68L344.104 78.792C344.024 78.8772 343.927 78.9453 343.82 78.992C343.712 79.0388 343.597 79.0633 343.48 79.064C343.363 79.0683 343.246 79.0492 343.136 79.008C343.026 78.9668 342.925 78.9043 342.84 78.824L340.8 76.864C340.715 76.7838 340.646 76.6872 340.6 76.5799C340.553 76.4726 340.528 76.357 340.528 76.24C340.522 76.1226 340.54 76.0051 340.581 75.895C340.622 75.7849 340.686 75.6845 340.768 75.6L342.776 73.496C342.943 73.3313 343.169 73.2391 343.404 73.2391C343.639 73.2391 343.864 73.3313 344.032 73.496L346.104 75.424ZM358.104 60.92C358.848 61.6248 359.486 62.4331 360 63.32C360.495 64.1604 360.838 65.081 361.016 66.04C361.166 66.9593 361.119 67.8999 360.88 68.8C360.625 69.6516 360.195 70.4408 359.617 71.1171C359.04 71.7934 358.329 72.342 357.528 72.728C356.902 73.0043 356.239 73.1876 355.56 73.272C354.898 73.3464 354.232 73.3651 353.568 73.328L351.68 73.224C351.117 73.1936 350.552 73.2123 349.992 73.28C349.49 73.3354 349.014 73.5293 348.616 73.84C348.428 73.9823 348.203 74.0682 347.968 74.088C347.855 74.1006 347.742 74.0877 347.635 74.0503C347.528 74.0129 347.432 73.952 347.352 73.872L345.536 72.144C345.361 71.979 345.257 71.7522 345.248 71.512C345.236 71.3938 345.254 71.2746 345.298 71.1646C345.343 71.0545 345.413 70.9569 345.504 70.88C346.061 70.3258 346.725 69.8904 347.456 69.6C348.113 69.356 348.798 69.1973 349.496 69.128C350.169 69.0721 350.846 69.0721 351.52 69.128C352.186 69.1867 352.81 69.2267 353.392 69.248C353.927 69.2749 354.463 69.2455 354.992 69.16C355.447 69.0892 355.866 68.8698 356.184 68.536C356.464 68.2456 356.67 67.8918 356.785 67.5045C356.899 67.1173 356.918 66.7081 356.84 66.312C356.641 65.3306 356.12 64.4437 355.36 63.792C354.721 63.1671 353.905 62.7548 353.022 62.6116C352.14 62.4684 351.235 62.6012 350.432 62.992C350.234 63.0789 350.023 63.1303 349.808 63.144C349.698 63.1374 349.592 63.1085 349.494 63.059C349.396 63.0094 349.31 62.9403 349.24 62.856L347.304 61.008C347.164 60.8819 347.079 60.7073 347.064 60.52C347.059 60.4211 347.075 60.3222 347.111 60.2298C347.146 60.1374 347.201 60.0537 347.272 59.984C347.877 59.4085 348.613 58.9885 349.416 58.76C350.328 58.4872 351.281 58.3762 352.232 58.432C353.278 58.4957 354.307 58.7281 355.28 59.12C356.32 59.5301 357.269 60.1418 358.072 60.92H358.104Z" fill="white"/>
</g>
<path d="M61.448 276.568C63.984 278.112 67.352 278.168 70.528 277.056L72.928 260.256L61.728 257.392L61.448 276.568Z" fill="#FFA8A7"/>
<path d="M79.52 292.648C79.8 292.936 79.632 295.048 79.288 295.52C78.944 295.992 77.016 297.592 73.464 297.656C70.08 297.712 67.064 297.096 65.176 295.728C63.288 294.36 62.384 292.928 62.296 290.992C62.208 289.056 62.528 287.224 61.696 285.696C60.864 284.168 59.864 282.888 59.608 282.136C59.3074 280.774 59.3074 279.362 59.608 278L79.52 292.648Z" fill="#263238"/>
<path d="M71.3041 276.352C71.3198 277.082 71.4219 277.807 71.6081 278.512C72.0443 280.025 72.6593 281.481 73.4401 282.848C73.8284 283.562 74.2641 284.249 74.7441 284.904C75.6961 286.176 76.9121 287.24 77.9441 288.464C79.0396 289.624 79.6984 291.128 79.8081 292.72C79.8081 295.376 76.8881 296.12 74.6561 296.392C72.2307 296.688 69.7697 296.434 67.4561 295.648C66.2452 295.261 65.1717 294.533 64.3643 293.551C63.5569 292.569 63.0499 291.375 62.9041 290.112C62.8161 289.368 62.9041 288.624 62.8561 287.88C62.6568 286.173 62.0355 284.543 61.0481 283.136C60.474 282.322 59.9911 281.448 59.6081 280.528C59.0001 278.856 59.6561 277.04 60.1841 275.432C60.6401 274.048 60.9841 272.376 61.4961 272.536C61.4961 272.816 61.4961 273.44 61.4961 273.44C61.6401 273.752 61.9921 273.976 62.0801 274.344C62.1631 274.724 62.2782 275.096 62.4241 275.456C62.6419 276.013 63.0278 276.488 63.5281 276.816C63.6161 275.816 63.7041 274.816 63.7841 273.824C63.7614 273.666 63.7749 273.506 63.8236 273.354C63.8723 273.202 63.955 273.064 64.0652 272.949C64.1755 272.834 64.3106 272.746 64.4601 272.691C64.6096 272.636 64.7696 272.616 64.9281 272.632C66.8047 272.289 68.7225 272.232 70.6161 272.464C70.7587 272.475 70.8979 272.513 71.0255 272.578C71.1532 272.643 71.2669 272.732 71.3601 272.84C71.4578 273.053 71.4884 273.29 71.4481 273.52C71.3491 274.461 71.301 275.406 71.3041 276.352Z" fill="#292A73"/>
<path opacity="0.2" d="M71.3041 276.352C71.3198 277.082 71.4219 277.807 71.6081 278.512C72.0443 280.025 72.6593 281.481 73.4401 282.848C73.8284 283.562 74.2641 284.249 74.7441 284.904C75.6961 286.176 76.9121 287.24 77.9441 288.464C79.0396 289.624 79.6984 291.128 79.8081 292.72C79.8081 295.376 76.8881 296.12 74.6561 296.392C72.2307 296.688 69.7697 296.434 67.4561 295.648C66.2452 295.261 65.1717 294.533 64.3643 293.551C63.5569 292.569 63.0499 291.375 62.9041 290.112C62.8161 289.368 62.9041 288.624 62.8561 287.88C62.6568 286.173 62.0355 284.543 61.0481 283.136C60.474 282.322 59.9911 281.448 59.6081 280.528C59.0001 278.856 59.6561 277.04 60.1841 275.432C60.6401 274.048 60.9841 272.376 61.4961 272.536C61.4961 272.816 61.4961 273.44 61.4961 273.44C61.6401 273.752 61.9921 273.976 62.0801 274.344C62.1631 274.724 62.2782 275.096 62.4241 275.456C62.6419 276.013 63.0278 276.488 63.5281 276.816C63.6161 275.816 63.7041 274.816 63.7841 273.824C63.7614 273.666 63.7749 273.506 63.8236 273.354C63.8723 273.202 63.955 273.064 64.0652 272.949C64.1755 272.834 64.3106 272.746 64.4601 272.691C64.6096 272.636 64.7696 272.616 64.9281 272.632C66.8047 272.289 68.7225 272.232 70.6161 272.464C70.7587 272.475 70.8979 272.513 71.0255 272.578C71.1532 272.643 71.2669 272.732 71.3601 272.84C71.4578 273.053 71.4884 273.29 71.4481 273.52C71.3491 274.461 71.301 275.406 71.3041 276.352Z" fill="black"/>
<path d="M73.7682 283.424C72.8242 282.624 70.6162 282.504 69.4002 282.568C68.1682 282.609 66.9663 282.959 65.9042 283.584C65.7472 283.68 65.5621 283.718 65.38 283.694C65.1979 283.669 65.0299 283.582 64.9042 283.448C64.8303 283.37 64.7743 283.277 64.7403 283.175C64.7063 283.073 64.695 282.965 64.7072 282.858C64.7194 282.751 64.7548 282.649 64.8109 282.557C64.8671 282.466 64.9426 282.387 65.0322 282.328C66.2078 281.562 67.5734 281.138 68.9762 281.104C72.0002 281.056 72.8002 281.6 72.8002 281.6C72.8002 281.6 74.1122 282.56 73.7682 283.424Z" fill="#455A64"/>
<path d="M75.8881 286.256C74.6881 285.456 72.2561 285.456 71.0401 285.496C69.8308 285.553 68.658 285.929 67.6401 286.584C67.4824 286.682 67.2956 286.722 67.1117 286.697C66.9279 286.672 66.7583 286.584 66.6321 286.448C66.5573 286.37 66.5007 286.277 66.4665 286.174C66.4322 286.072 66.4212 285.963 66.4343 285.856C66.4473 285.749 66.484 285.646 66.5417 285.554C66.5995 285.463 66.6768 285.386 66.7681 285.328C67.9506 284.519 69.3367 284.059 70.7681 284C73.7521 283.944 74.4961 284.6 74.4961 284.6C74.8392 284.752 75.143 284.98 75.3843 285.267C75.6256 285.554 75.7979 285.892 75.8881 286.256Z" fill="#455A64"/>
<path d="M67.9442 278.2C69.2076 278.049 70.4886 278.225 71.6642 278.712C72.1682 279.04 72.4642 279.88 72.1202 280.072C71.0827 279.591 69.9421 279.373 68.8002 279.44C67.6821 279.49 66.5808 279.73 65.5442 280.152C65.2802 280.248 64.9762 280.392 64.7442 280.52C64.6587 280.564 64.5651 280.589 64.4692 280.595C64.3734 280.601 64.2773 280.587 64.1872 280.554C64.097 280.521 64.0146 280.47 63.9453 280.403C63.8759 280.337 63.8211 280.257 63.7842 280.168C63.734 280.02 63.7369 279.859 63.7924 279.713C63.8478 279.567 63.9524 279.445 64.0882 279.368C65.2758 278.709 66.5904 278.311 67.9442 278.2Z" fill="#455A64"/>
<path d="M93.0161 270.256C94.9681 275.144 98.0241 273.64 102.68 270.824L103.384 254.136L91.5361 253.04L93.0161 270.256Z" fill="#FFA8A7"/>
<path d="M120.552 282.024C120.768 282.809 120.677 283.648 120.296 284.368C119.928 285.04 116.224 286.88 111.384 286.288C107.795 285.846 104.391 284.448 101.528 282.24C99.744 280.912 97.832 280.584 95.432 280.312C93.032 280.04 91.232 279.208 90.76 278.056C90.288 276.904 91.008 275 91.008 275L120.552 282.024Z" fill="#263238"/>
<path d="M101.704 266.64C102.141 266.548 102.572 266.425 102.992 266.272C103.227 266.185 103.485 266.185 103.72 266.272C104.024 266.408 104.12 266.776 104.192 267.072C104.26 267.796 104.4 268.511 104.608 269.208C104.935 269.786 105.37 270.297 105.888 270.712C107.041 271.744 108.299 272.653 109.64 273.424C111.184 274.368 112.704 275.112 114.296 275.936C115.888 276.76 118.12 277.352 119.384 278.336C121.216 279.728 121.288 282.968 119.048 284.12C117.12 285.12 112.128 286.048 107.048 284.304C104.272 283.352 101.312 280.176 97.6321 279.688C95.2881 279.384 92.1681 279.016 90.7521 277.152C90.2401 276.352 90.6881 274.032 91.1041 271.32C91.4801 268.92 91.8241 265.08 92.6001 265.336L92.6561 266.072L93.6001 267.2C93.8069 267.42 94.0259 267.628 94.2561 267.824C94.5087 268.12 94.7757 268.403 95.0561 268.672C95.4364 268.998 95.9092 269.196 96.4081 269.24C96.6446 269.255 96.8804 269.202 97.0881 269.088C97.4881 268.864 97.5441 268.336 97.8881 268.008C98.2601 267.625 98.7066 267.323 99.2001 267.12C99.8854 266.876 100.602 266.731 101.328 266.688C101.454 266.68 101.58 266.664 101.704 266.64Z" fill="#292A73"/>
<path opacity="0.2" d="M101.704 266.64C102.141 266.548 102.572 266.425 102.992 266.272C103.227 266.185 103.485 266.185 103.72 266.272C104.024 266.408 104.12 266.776 104.192 267.072C104.26 267.796 104.4 268.511 104.608 269.208C104.935 269.786 105.37 270.297 105.888 270.712C107.041 271.744 108.299 272.653 109.64 273.424C111.184 274.368 112.704 275.112 114.296 275.936C115.888 276.76 118.12 277.352 119.384 278.336C121.216 279.728 121.288 282.968 119.048 284.12C117.12 285.12 112.128 286.048 107.048 284.304C104.272 283.352 101.312 280.176 97.6321 279.688C95.2881 279.384 92.1681 279.016 90.7521 277.152C90.2401 276.352 90.6881 274.032 91.1041 271.32C91.4801 268.92 91.8241 265.08 92.6001 265.336L92.6561 266.072L93.6001 267.2C93.8069 267.42 94.0259 267.628 94.2561 267.824C94.5087 268.12 94.7757 268.403 95.0561 268.672C95.4364 268.998 95.9092 269.196 96.4081 269.24C96.6446 269.255 96.8804 269.202 97.0881 269.088C97.4881 268.864 97.5441 268.336 97.8881 268.008C98.2601 267.625 98.7066 267.323 99.2001 267.12C99.8854 266.876 100.602 266.731 101.328 266.688C101.454 266.68 101.58 266.664 101.704 266.64Z" fill="black"/>
<path d="M107.52 272C107.366 271.668 107.132 271.379 106.839 271.16C106.545 270.941 106.202 270.798 105.84 270.744C104.784 270.488 102.856 271.176 101.632 272.08C101.516 272.165 101.422 272.276 101.359 272.405C101.296 272.534 101.265 272.677 101.27 272.821C101.275 272.964 101.315 273.105 101.386 273.229C101.458 273.354 101.558 273.459 101.68 273.536C101.834 273.629 102.013 273.673 102.193 273.663C102.372 273.653 102.545 273.59 102.688 273.48C104.041 272.371 105.777 271.839 107.52 272Z" fill="#455A64"/>
<path d="M110.728 274.056C110.512 273.716 110.218 273.432 109.87 273.229C109.522 273.025 109.131 272.909 108.728 272.888C107.078 272.871 105.464 273.378 104.12 274.336C104.006 274.415 103.913 274.52 103.849 274.643C103.785 274.765 103.751 274.902 103.751 275.04C103.751 275.178 103.785 275.315 103.849 275.437C103.913 275.56 104.006 275.665 104.12 275.744C104.27 275.834 104.444 275.877 104.618 275.865C104.793 275.854 104.959 275.789 105.096 275.68C105.852 275.002 106.751 274.504 107.726 274.223C108.701 273.942 109.728 273.885 110.728 274.056Z" fill="#455A64"/>
<path d="M114.296 275.928C114.047 275.61 113.732 275.35 113.373 275.165C113.014 274.98 112.619 274.875 112.216 274.856C110.623 274.869 109.075 275.384 107.792 276.328C107.681 276.411 107.591 276.519 107.531 276.644C107.471 276.769 107.442 276.906 107.447 277.045C107.451 277.183 107.49 277.318 107.558 277.439C107.627 277.559 107.723 277.661 107.84 277.736C107.985 277.834 108.159 277.882 108.333 277.871C108.508 277.861 108.675 277.794 108.808 277.68C109.522 276.979 110.391 276.456 111.344 276.152C112.297 275.847 113.308 275.771 114.296 275.928Z" fill="#455A64"/>
<path d="M61.1361 231.528C61.4961 223.472 63.2081 219.28 63.4481 217.048C63.4481 217.048 64.1041 172.728 65.1841 159.28L104.864 157.592C105.448 171.992 105.976 210.68 105.664 215.8C105.368 220.704 103.376 263.24 103.376 263.24C97.7761 264.992 91.8001 262.44 91.8001 262.44C91.8001 262.44 88.4721 238.24 87.9281 232.904C87.542 228.105 87.6653 223.278 88.2961 218.504L85.7601 184.048C85.7601 184.048 82.6961 210.768 81.1841 220.848C79.4561 232.376 72.0001 268.112 72.0001 268.112C66.6401 269.448 61.4241 267.136 61.4241 267.136C61.4241 267.136 60.6081 243.2 61.1361 231.528Z" fill="#455A64"/>
<path d="M85.7681 184.08L86.5201 179.328C88.8321 178.984 94.6881 175.328 98.1521 172.128C95.6845 175.862 92.3459 178.94 88.4241 181.096L88.3041 218.52L85.7681 184.08Z" fill="#37474F"/>
<path d="M102.04 134.248C99.3441 128.096 94.7041 117.736 94.7041 117.736L93.5281 100.936C95.2447 100.991 96.9568 101.143 98.6561 101.392C101.152 101.784 105.112 104.168 106.92 108.664C108.272 112 115.296 132.352 115.296 132.352L127.536 125.904C130.672 123.912 131.784 120.608 133.784 118.704C135.784 116.8 137.784 116.512 140 114.984C142.216 113.456 143.088 112.232 143.648 113.76C144.208 115.288 141.728 117.632 141.248 118.216C140.768 118.8 138.36 120.048 141.432 120.208C144.504 120.368 150.72 117.376 152.208 116.864C153.696 116.352 153.568 118.12 152.792 119.216C152.016 120.312 151.936 123.528 150.64 125.328C149.264 127.248 148.52 128.072 145.568 129.216C142.824 130.272 137.136 130.544 134.208 132.232C131.28 133.92 124.192 140.328 119.464 143.616C113.12 148.032 109.552 148.32 107.064 144.8C104.576 141.28 102.992 136.416 102.04 134.248Z" fill="#FFA8A7"/>
<path d="M91.8721 100.576C96.0321 100.256 100.936 100.512 103.648 102.976C105.816 104.952 106.632 106.176 109.048 113.008C110.648 117.592 114.072 128.152 114.072 128.152C109.371 129.213 105.152 131.797 102.072 135.504L94.2721 117.976L91.8721 100.576Z" fill="#E0E0E0"/>
<path d="M115.296 132.312C113.188 133.059 111.374 134.46 110.12 136.312C110.12 136.312 110.416 133.112 114.92 131.2L115.296 132.312Z" fill="#F28F8F"/>
<path d="M81.9121 99.8241C79.9417 99.7428 77.9703 99.9586 76.0641 100.464C72.4081 101.432 65.8561 103.272 65.8561 103.272C63.7761 104.352 62.9681 107.952 62.4961 110.024C60.9921 116.656 64.8961 131.624 65.4961 137.456C66.0961 143.288 64.8001 161.152 64.8001 161.152C69.2721 166.336 93.5041 169.776 105.304 161.152C105.304 161.152 105.816 120.136 104.656 114.248C102.896 105.336 100.28 101.104 91.0561 100.568L81.9121 99.8241Z" fill="#F5F5F5"/>
<path d="M87.0882 77.8242L84.4562 79.2722C84.2741 78.9098 84.2365 78.4918 84.3508 78.1027C84.4652 77.7136 84.723 77.3825 85.0722 77.1762C85.2462 77.0818 85.4375 77.0236 85.6345 77.0051C85.8316 76.9867 86.0304 77.0084 86.2188 77.069C86.4073 77.1296 86.5815 77.2277 86.7309 77.3575C86.8803 77.4873 87.0019 77.6461 87.0882 77.8242Z" fill="#263238"/>
<path d="M98.536 78.8801L96.136 77.0321C96.2487 76.8698 96.3933 76.7321 96.561 76.6275C96.7287 76.5229 96.9159 76.4535 97.1112 76.4235C97.3066 76.3936 97.506 76.4037 97.6973 76.4534C97.8886 76.503 98.0678 76.591 98.224 76.7121C98.5419 76.9661 98.7512 77.3316 98.8091 77.7343C98.8671 78.1371 98.7694 78.5468 98.536 78.8801Z" fill="#263238"/>
<path d="M74.9921 69.448C74.9921 69.448 72.1601 69.84 71.1201 72C70.2241 73.856 70.5441 78.336 71.7521 83.2C72.4348 86.3559 73.4539 89.4295 74.7921 92.368C75.2648 93.2006 76.0373 93.8214 76.9521 94.104L76.8001 88.296L76.5921 84.296C76.5921 84.296 79.1761 80.76 79.4641 77.896C79.8321 74.168 79.0481 72.64 79.0481 72.64L74.9921 69.448Z" fill="#263238"/>
<path d="M79.5601 75.048C79.5707 77.9146 80.718 80.6599 82.7502 82.6816C84.7824 84.7033 87.5335 85.8363 90.4001 85.832C96.3681 85.832 100.848 80.912 100.8 74.936C100.752 68.96 96.2721 64.176 90.2961 64.2C87.4359 64.2212 84.7004 65.3744 82.6884 67.4075C80.6764 69.4405 79.5516 72.1877 79.5601 75.048Z" fill="#263238"/>
<path d="M76.8001 83.6162C75.8241 84.4642 75.0321 82.2802 74.2161 81.4242C73.4001 80.5682 70.7201 79.4162 69.4161 82.2242C68.1121 85.0322 70.5841 89.1042 72.6161 89.8882C73.2295 90.1205 73.9033 90.1394 74.5288 89.9421C75.1543 89.7447 75.6951 89.3425 76.0641 88.8002V101.6C79.1441 107.152 84.5761 106.976 87.4801 106.664C90.3841 106.352 91.0161 103.336 88.8961 100.904V96.9042C90.5096 97.1574 92.1458 97.2352 93.7761 97.1362C96.4321 96.7202 97.7761 94.7362 98.5761 91.8322C99.8561 87.2002 100.376 79.4242 98.5761 70.4402C95.6001 68.1362 85.2801 68.5202 79.0321 72.4802C79.5201 80.5362 77.7281 82.7762 76.8001 83.6162Z" fill="#FFA8A7"/>
<path d="M99.1041 65.9921C99.506 64.3244 99.6862 62.6109 99.6401 60.8961C99.6401 60.2241 99.4721 59.4081 98.8401 59.1521C98.2081 58.8961 97.5841 59.3601 97.0401 59.7281C94.7361 61.2801 91.8721 61.7201 89.0961 61.8721C84.2961 62.1361 76.9601 61.8241 74.5201 67.0801C73.8401 68.5361 73.7201 70.0721 75.0641 71.0801C76.2624 71.8828 77.6326 72.3925 79.0641 72.5681C81.4641 72.9921 83.8641 73.5201 86.3281 73.8481C88.7921 74.1761 91.7201 74.4961 94.1601 73.7441C96.2161 73.1121 98.3041 72.5681 99.8321 70.9361C101.157 69.513 101.904 67.6479 101.928 65.7041C101.928 65.4321 101.872 65.0881 101.6 65.0161C101.464 64.999 101.326 65.0271 101.208 65.0961L99.1041 65.9921Z" fill="#263238"/>
<path d="M88.8722 96.9922C88.8722 96.9922 82.9362 95.8162 80.8722 94.7202C79.6496 94.0868 78.646 93.1 77.9922 91.8882C78.2962 93.0987 78.8403 94.2359 79.5922 95.2322C81.1202 97.1682 88.8562 98.5682 88.8562 98.5682L88.8722 96.9922Z" fill="#F28F8F"/>
<path d="M87.6802 81.752C87.6723 82.0144 87.5874 82.2686 87.4359 82.483C87.2844 82.6974 87.0731 82.8624 86.8284 82.9574C86.5836 83.0524 86.3164 83.0732 86.0599 83.0172C85.8034 82.9613 85.5691 82.831 85.3863 82.6426C85.2034 82.4543 85.0801 82.2163 85.0317 81.9583C84.9833 81.7002 85.012 81.4337 85.1142 81.1919C85.2164 80.9501 85.3875 80.7438 85.6063 80.5987C85.825 80.4535 86.0817 80.3761 86.3442 80.376C86.7035 80.3823 87.0457 80.5306 87.296 80.7884C87.5464 81.0462 87.6845 81.3926 87.6802 81.752Z" fill="#263238"/>
<path d="M89.6001 90.992C89.6066 91.3302 89.4789 91.6571 89.2451 91.9015C89.0112 92.1458 88.6902 92.2877 88.3521 92.2961C88.0119 92.2897 87.688 92.1491 87.4512 91.9047C87.2144 91.6604 87.0838 91.3323 87.0881 90.992C87.0849 90.825 87.1147 90.659 87.1757 90.5034C87.2367 90.3479 87.3278 90.2059 87.4436 90.0855C87.5595 89.9652 87.698 89.8688 87.8511 89.802C88.0043 89.7352 88.1691 89.6992 88.3361 89.696C88.6749 89.7024 88.9976 89.8419 89.2342 90.0845C89.4708 90.3271 89.6023 90.6532 89.6001 90.992Z" fill="#B16668"/>
<path d="M86.0001 77.5522L83.2481 79.2882C83.0211 78.9104 82.9492 78.4593 83.0477 78.0297C83.1462 77.6001 83.4072 77.2254 83.7761 76.9842C83.9586 76.8723 84.1617 76.7982 84.3733 76.7662C84.5849 76.7343 84.8008 76.7451 85.0082 76.7981C85.2156 76.851 85.4102 76.945 85.5806 77.0746C85.751 77.2041 85.8936 77.3665 86.0001 77.5522Z" fill="#263238"/>
<path d="M95.712 75.8562L98.608 77.1522C98.5299 77.3423 98.414 77.5146 98.2674 77.6586C98.1209 77.8027 97.9466 77.9155 97.7551 77.9903C97.5637 78.0651 97.3591 78.1002 97.1537 78.0937C96.9483 78.0871 96.7463 78.039 96.56 77.9522C96.1819 77.7724 95.885 77.4574 95.728 77.0693C95.571 76.6812 95.5653 76.2483 95.712 75.8562Z" fill="#263238"/>
<path d="M97.2401 81.3521C97.2307 81.6043 97.1475 81.8481 97.0007 82.0533C96.8539 82.2586 96.6501 82.4162 96.4145 82.5066C96.179 82.597 95.922 82.6162 95.6756 82.5619C95.4292 82.5075 95.2042 82.382 95.0285 82.2009C94.8529 82.0198 94.7342 81.7911 94.6874 81.5431C94.6406 81.2952 94.6676 81.039 94.7651 80.8063C94.8627 80.5736 95.0264 80.3746 95.236 80.2341C95.4456 80.0937 95.6918 80.0179 95.9441 80.0161C96.2928 80.0224 96.6249 80.1665 96.8677 80.4168C97.1105 80.6671 97.2444 81.0034 97.2401 81.3521Z" fill="#263238"/>
<path d="M90.696 79.0962L91.176 87.9922L95.392 86.8722L90.696 79.0962Z" fill="#F28F8F"/>
<path d="M16.0001 115.736C17.3841 116.48 23.0241 120.448 26.0881 120.792C27.3841 120.936 27.7361 120.728 27.6881 120.392C27.6241 119.928 26.8001 119.232 26.6001 118.856C26.2561 118.2 24.2001 115.48 25.0001 114.056C25.8001 112.632 26.4961 113.992 28.4001 115.856C30.3041 117.72 32.2561 118.368 33.9281 120.536C35.6001 122.704 36.1601 126.136 38.9281 128.624L49.9521 136.152C49.9521 136.152 55.0881 112.32 57.3441 109.512C59.7441 106.56 70.0401 112.992 67.8801 122.376C65.7201 131.76 60.8001 148.048 57.3761 151.24C55.1681 153.312 50.5201 151.36 44.7201 146.2C40.1361 142.12 33.8561 136 31.2001 133.832C28.5441 131.664 23.0241 130.496 20.4881 129.032C17.7601 127.432 17.1601 126.496 16.1121 124.376C15.1281 122.384 15.5681 119.192 14.9841 117.976C14.4001 116.76 14.5921 114.992 16.0001 115.736Z" fill="#FFA8A7"/>
<path d="M65.8561 103.272C69.3921 105.48 69.5681 108.696 69.7441 112.376C69.7942 116.684 69.1125 120.969 67.7281 125.048C66.2321 129.68 63.8561 138.136 63.8561 138.136C63.8561 138.136 54.6241 138.352 49.8721 134.248C49.8721 134.248 52.0401 125.128 53.5681 118.248C55.0961 111.368 56.9521 104.048 65.8561 103.272Z" fill="#E0E0E0"/>
<path d="M49.9121 136.168C52.4321 137.568 53.9121 140.576 54.3681 141.768C54.259 140.38 53.8221 139.038 53.0934 137.852C52.3647 136.665 51.3648 135.669 50.1761 134.944L49.9121 136.168Z" fill="#F28F8F"/>
<path d="M145.688 309.072L207.432 344.72V357.856L145.688 322.208V309.072Z" fill="#292A73"/>
<path opacity="0.35" d="M145.688 309.072L207.432 344.72V357.856L145.688 322.208V309.072Z" fill="black"/>
<path d="M269.176 309.072L207.432 344.72V357.856L269.176 322.208V309.072Z" fill="#292A73"/>
<path opacity="0.2" d="M269.176 309.072L207.432 344.72V357.856L269.176 322.208V309.072Z" fill="black"/>
<path d="M269.176 309.072L207.432 273.432L145.688 309.072L207.432 344.72L269.176 309.072Z" fill="#292A73"/>
<path opacity="0.15" d="M269.176 309.072L207.432 273.432L145.688 309.072L207.432 344.72L269.176 309.072Z" fill="black"/>
<path opacity="0.1" d="M207.432 344.72V340.968L152.184 309.072H145.688L207.432 344.72Z" fill="black"/>
<path opacity="0.1" d="M207.432 273.432V277.184L262.68 309.072H269.176L207.432 273.432Z" fill="black"/>
<path d="M269.176 309.072H262.68L207.432 340.968V344.72L269.176 309.072Z" fill="#292A73"/>
<path d="M207.432 273.432V277.184L152.184 309.072H145.688L207.432 273.432Z" fill="#292A73"/>
<path d="M207.656 293.6L234.184 308.912C236.168 310.064 236.168 311.92 234.184 313.064L214.4 324.52C213.286 325.09 212.052 325.387 210.8 325.387C209.548 325.387 208.315 325.09 207.2 324.52L180.672 309.208C178.688 308.056 178.688 306.2 180.672 305.056L200.464 293.6C201.578 293.032 202.81 292.736 204.06 292.736C205.31 292.736 206.543 293.032 207.656 293.6Z" fill="#37474F"/>
<path d="M214.4 324.52L233.528 313.472L207.656 298.536C206.539 297.974 205.307 297.68 204.056 297.68C202.806 297.68 201.573 297.974 200.456 298.536L181.328 309.6L207.2 324.52C208.315 325.09 209.548 325.387 210.8 325.387C212.052 325.387 213.286 325.09 214.4 324.52Z" fill="#455A64"/>
<path d="M191.632 309.096L203.24 302.4C203.456 302.292 203.695 302.235 203.936 302.235C204.178 302.235 204.416 302.292 204.632 302.4L206.056 303.2C206.44 303.416 206.44 303.776 206.056 304L194.448 310.696C194.234 310.804 193.997 310.861 193.756 310.861C193.516 310.861 193.279 310.804 193.064 310.696L191.64 309.896C191.557 309.868 191.485 309.814 191.433 309.743C191.382 309.672 191.354 309.587 191.353 309.499C191.352 309.411 191.378 309.325 191.428 309.253C191.478 309.181 191.55 309.126 191.632 309.096Z" fill="#263238"/>
<path d="M208.968 319.12L220.576 312.424C220.791 312.316 221.028 312.259 221.268 312.259C221.509 312.259 221.746 312.316 221.96 312.424L223.392 313.224C223.776 313.44 223.776 313.8 223.392 314.024L211.784 320.72C211.57 320.828 211.333 320.885 211.092 320.885C210.852 320.885 210.615 320.828 210.4 320.72L208.976 319.92C208.893 319.892 208.821 319.838 208.769 319.767C208.718 319.696 208.69 319.611 208.689 319.523C208.688 319.435 208.714 319.349 208.764 319.277C208.814 319.205 208.886 319.15 208.968 319.12Z" fill="#263238"/>
<path d="M180.608 335.016C180.543 333.802 180.191 332.62 179.582 331.568C178.973 330.515 178.124 329.622 177.104 328.96C176.751 328.702 176.336 328.544 175.901 328.502C175.466 328.46 175.028 328.535 174.632 328.72L173.12 329.6C172.764 329.851 172.482 330.192 172.302 330.589C172.122 330.986 172.051 331.423 172.096 331.856C172.162 333.07 172.513 334.252 173.121 335.305C173.728 336.359 174.575 337.254 175.592 337.92C175.947 338.178 176.363 338.336 176.799 338.378C177.235 338.42 177.675 338.345 178.072 338.16L179.576 337.256C179.93 337.006 180.211 336.668 180.393 336.274C180.574 335.881 180.648 335.447 180.608 335.016Z" fill="#292A73"/>
<path opacity="0.1" d="M175.592 329.864C176.612 330.526 177.462 331.419 178.071 332.472C178.679 333.524 179.031 334.706 179.096 335.92C179.096 338.152 177.496 339.056 175.592 337.944C174.575 337.278 173.728 336.383 173.121 335.329C172.514 334.276 172.163 333.094 172.096 331.88C172.096 329.656 173.664 328.752 175.592 329.864Z" fill="black"/>
<path d="M135.008 355.416C131.104 355.484 127.248 354.55 123.808 352.704L82.8481 329.056C79.5601 327.152 77.7441 324.528 77.7441 321.664C77.7441 318.8 79.5601 316.184 82.8481 314.28L130.304 286.88C135.504 283.88 139.904 276.272 139.904 270.264V120.08C139.904 119.656 140.073 119.249 140.373 118.949C140.673 118.649 141.08 118.48 141.504 118.48C141.928 118.48 142.335 118.649 142.636 118.949C142.936 119.249 143.104 119.656 143.104 120.08V270.264C143.104 277.512 138.192 286.032 131.904 289.656L84.4481 317.056C82.1921 318.36 80.9441 319.992 80.9441 321.664C80.9441 323.336 82.1921 324.976 84.4481 326.28L125.408 349.928C130.696 352.984 139.304 352.984 144.608 349.928L174.808 332.504C174.99 332.388 175.194 332.311 175.407 332.275C175.62 332.24 175.838 332.249 176.047 332.3C176.257 332.352 176.454 332.445 176.626 332.574C176.799 332.704 176.944 332.867 177.052 333.054C177.16 333.24 177.229 333.447 177.255 333.661C177.281 333.876 177.263 334.093 177.203 334.3C177.143 334.507 177.042 334.7 176.905 334.867C176.768 335.034 176.599 335.172 176.408 335.272L146.208 352.704C142.769 354.552 138.912 355.486 135.008 355.416Z" fill="#37474F"/>
<path d="M63.136 62.6481C63.1123 62.5396 63.1114 62.4274 63.1335 62.3186C63.1555 62.2098 63.1999 62.1068 63.264 62.0161C63.3243 61.9212 63.4039 61.8401 63.4976 61.7781C63.5913 61.7161 63.6971 61.6745 63.808 61.6561L67.696 60.9041C67.8056 60.8792 67.9193 60.8778 68.0296 60.8998C68.1399 60.9219 68.2443 60.967 68.336 61.0321C68.5218 61.16 68.6509 61.355 68.696 61.5761L69.296 64.6961C69.3185 64.8051 69.3181 64.9176 69.2946 65.0264C69.2712 65.1353 69.2254 65.238 69.16 65.3281C69.1014 65.4235 69.0234 65.5056 68.931 65.569C68.8387 65.6324 68.7341 65.6757 68.624 65.6961L64.728 66.4401C64.6195 66.4638 64.5073 66.4646 64.3985 66.4426C64.2897 66.4205 64.1867 66.3761 64.096 66.3121C64.0011 66.2518 63.92 66.1722 63.858 66.0784C63.796 65.9847 63.7544 65.879 63.736 65.7681L63.136 62.6481ZM59.888 45.8001C59.8659 45.6903 59.8658 45.5771 59.8877 45.4673C59.9096 45.3574 59.953 45.253 60.0155 45.16C60.078 45.067 60.1583 44.9873 60.2517 44.9256C60.3452 44.8638 60.4499 44.8211 60.56 44.8001L64.456 44.0481C64.565 44.0255 64.6775 44.026 64.7863 44.0494C64.8951 44.0728 64.9979 44.1187 65.088 44.1841C65.1819 44.2435 65.2625 44.3219 65.3244 44.4141C65.3864 44.5064 65.4285 44.6106 65.448 44.7201L68 58.0561C68.0225 58.1651 68.0221 58.2776 67.9986 58.3864C67.9752 58.4953 67.9294 58.598 67.864 58.6881C67.8045 58.782 67.7262 58.8626 67.6339 58.9246C67.5416 58.9865 67.4374 59.0286 67.328 59.0481L63.432 59.8001C63.323 59.8226 63.2104 59.8222 63.1016 59.7988C62.9928 59.7753 62.89 59.7295 62.8 59.6641C62.706 59.6047 62.6255 59.5263 62.5635 59.434C62.5015 59.3417 62.4594 59.2375 62.44 59.1281L59.888 45.8001Z" fill="#292A73"/>
<path d="M56.6401 75.7041C56.5653 75.6213 56.5076 75.5244 56.4703 75.4192C56.433 75.3139 56.4169 75.2024 56.4229 75.0909C56.4288 74.9794 56.4567 74.8701 56.505 74.7695C56.5532 74.6688 56.6209 74.5786 56.7041 74.5041L59.6561 71.8562C59.7385 71.7803 59.8359 71.7226 59.942 71.6867C60.0481 71.6509 60.1606 71.6378 60.2721 71.6482C60.383 71.6505 60.4922 71.6759 60.5927 71.7228C60.6932 71.7696 60.7829 71.8368 60.8561 71.9202L62.9761 74.3202C63.0509 74.403 63.1086 74.4999 63.1459 74.6051C63.1832 74.7104 63.1993 74.822 63.1933 74.9334C63.1874 75.0449 63.1595 75.1542 63.1112 75.2548C63.063 75.3555 62.9953 75.4457 62.9121 75.5202L60.0001 78.1362C59.9177 78.212 59.8203 78.2697 59.7142 78.3056C59.6081 78.3414 59.4956 78.3545 59.3841 78.3442C59.2732 78.3418 59.164 78.3164 59.0635 78.2695C58.963 78.2227 58.8733 78.1555 58.8001 78.0721L56.6401 75.7041ZM45.1921 62.9042C45.0416 62.7354 44.9639 62.514 44.9761 62.2882C44.9795 62.1767 45.0061 62.0671 45.0544 61.9666C45.1026 61.866 45.1713 61.7766 45.2561 61.7042L48.2081 59.0562C48.2898 58.9789 48.3869 58.9197 48.4931 58.8825C48.5992 58.8452 48.712 58.8308 48.8241 58.8402C48.9356 58.8435 49.0451 58.8702 49.1457 58.9184C49.2463 58.9666 49.3357 59.0354 49.4081 59.1202L58.4641 69.2481C58.54 69.3305 58.5977 69.428 58.6335 69.5341C58.6693 69.6402 58.6825 69.7526 58.6721 69.8642C58.6697 69.975 58.6443 70.0842 58.5975 70.1847C58.5507 70.2853 58.4834 70.375 58.4001 70.4481L55.4401 73.0962C55.3586 73.171 55.2625 73.2281 55.1579 73.2639C55.0533 73.2997 54.9423 73.3134 54.8321 73.3041C54.7199 73.3029 54.6091 73.278 54.5072 73.2311C54.4052 73.1843 54.3142 73.1165 54.2401 73.0322L45.1921 62.9042Z" fill="#292A73"/>
<g opacity="0.6">
<path opacity="0.6" d="M56.6401 75.7041C56.5653 75.6213 56.5076 75.5244 56.4703 75.4192C56.433 75.3139 56.4169 75.2024 56.4229 75.0909C56.4288 74.9794 56.4567 74.8701 56.505 74.7695C56.5532 74.6688 56.6209 74.5786 56.7041 74.5041L59.6561 71.8562C59.7385 71.7803 59.8359 71.7226 59.942 71.6867C60.0481 71.6509 60.1606 71.6378 60.2721 71.6482C60.383 71.6505 60.4922 71.6759 60.5927 71.7228C60.6932 71.7696 60.7829 71.8368 60.8561 71.9202L62.9761 74.3202C63.0509 74.403 63.1086 74.4999 63.1459 74.6051C63.1832 74.7104 63.1993 74.822 63.1933 74.9334C63.1874 75.0449 63.1595 75.1542 63.1112 75.2548C63.063 75.3555 62.9953 75.4457 62.9121 75.5202L60.0001 78.1362C59.9177 78.212 59.8203 78.2697 59.7142 78.3056C59.6081 78.3414 59.4956 78.3545 59.3841 78.3442C59.2732 78.3418 59.164 78.3164 59.0635 78.2695C58.963 78.2227 58.8733 78.1555 58.8001 78.0721L56.6401 75.7041ZM45.1921 62.9042C45.0416 62.7354 44.9639 62.514 44.9761 62.2882C44.9795 62.1767 45.0061 62.0671 45.0544 61.9666C45.1026 61.866 45.1713 61.7766 45.2561 61.7042L48.2081 59.0562C48.2898 58.9789 48.3869 58.9197 48.4931 58.8825C48.5992 58.8452 48.712 58.8308 48.8241 58.8402C48.9356 58.8435 49.0451 58.8702 49.1457 58.9184C49.2463 58.9666 49.3357 59.0354 49.4081 59.1202L58.4641 69.2481C58.54 69.3305 58.5977 69.428 58.6335 69.5341C58.6693 69.6402 58.6825 69.7526 58.6721 69.8642C58.6697 69.975 58.6443 70.0842 58.5975 70.1847C58.5507 70.2853 58.4834 70.375 58.4001 70.4481L55.4401 73.0962C55.3586 73.171 55.2625 73.2281 55.1579 73.2639C55.0533 73.2997 54.9423 73.3134 54.8321 73.3041C54.7199 73.3029 54.6091 73.278 54.5072 73.2311C54.4052 73.1843 54.3142 73.1165 54.2401 73.0322L45.1921 62.9042Z" fill="white"/>
</g>
<path d="M132.8 38.4001C134.17 38.3142 135.525 38.7262 136.616 39.5601C137.083 39.9853 137.448 40.5104 137.683 41.0964C137.919 41.6824 138.019 42.314 137.976 42.9441C138.017 43.5775 137.916 44.212 137.681 44.8015C137.445 45.391 137.082 45.9207 136.616 46.3521C135.533 47.2035 134.176 47.6303 132.8 47.5521H129.6V52.0721C129.602 52.1449 129.589 52.2174 129.561 52.2848C129.534 52.3523 129.492 52.4133 129.44 52.4641C129.39 52.515 129.33 52.5554 129.264 52.5828C129.198 52.6103 129.128 52.6243 129.056 52.6241H127.416C127.343 52.6251 127.271 52.6116 127.204 52.5843C127.136 52.5569 127.075 52.5163 127.023 52.4648C126.972 52.4133 126.931 52.352 126.904 52.2846C126.877 52.2171 126.863 52.1449 126.864 52.0721V38.9681C126.864 38.896 126.878 38.8246 126.906 38.758C126.934 38.6915 126.975 38.6312 127.026 38.5805C127.078 38.5299 127.139 38.49 127.205 38.4632C127.272 38.4363 127.344 38.423 127.416 38.4241L132.8 38.4001ZM129.6 45.0161H132.744C133.392 45.0496 134.035 44.8909 134.592 44.5601C134.836 44.3765 135.028 44.1323 135.149 43.8516C135.27 43.571 135.315 43.2636 135.28 42.9601C135.319 42.6562 135.276 42.3475 135.155 42.066C135.034 41.7846 134.839 41.5408 134.592 41.3601C134.029 41.0452 133.388 40.8955 132.744 40.9281H129.6V45.0161Z" fill="#455A64"/>
<path d="M139.808 44.672C139.88 44.3485 140.007 44.04 140.184 43.76C140.394 43.4104 140.665 43.1014 140.984 42.848C141.382 42.5411 141.828 42.3032 142.304 42.144C142.89 41.9514 143.504 41.8594 144.12 41.872C144.752 41.862 145.381 41.9539 145.984 42.144C146.51 42.3116 146.997 42.5837 147.416 42.944C147.822 43.3089 148.137 43.7637 148.336 44.272C148.562 44.8586 148.674 45.4833 148.664 46.112V52.072C148.664 52.1453 148.65 52.218 148.621 52.2854C148.592 52.3528 148.549 52.4136 148.496 52.464C148.446 52.5153 148.387 52.5559 148.321 52.5834C148.255 52.6109 148.184 52.6247 148.112 52.624H146.576C146.503 52.6251 146.431 52.6115 146.364 52.5842C146.296 52.5568 146.235 52.5162 146.183 52.4647C146.132 52.4132 146.091 52.3519 146.064 52.2845C146.037 52.217 146.023 52.1448 146.024 52.072V51.408C145.703 51.8354 145.283 52.1786 144.8 52.408C144.163 52.7084 143.464 52.8511 142.76 52.824C142.218 52.8354 141.677 52.757 141.16 52.592C140.732 52.4571 140.336 52.2336 140 51.936C139.692 51.6539 139.447 51.3105 139.28 50.928C139.111 50.5284 139.026 50.098 139.032 49.664C139.012 49.2462 139.091 48.8295 139.264 48.4484C139.436 48.0673 139.697 47.7326 140.024 47.472C140.826 46.8857 141.766 46.5165 142.752 46.4L146.056 45.832C146.077 45.6055 146.037 45.3775 145.942 45.1711C145.846 44.9647 145.698 44.787 145.512 44.656C145.099 44.4177 144.629 44.2986 144.152 44.312C143.878 44.2981 143.604 44.3473 143.352 44.456C143.153 44.5563 142.969 44.6857 142.808 44.84C142.709 44.932 142.595 45.0076 142.472 45.064C142.365 45.106 142.251 45.1277 142.136 45.128H140.248C140.121 45.1326 139.997 45.0865 139.904 45C139.858 44.9606 139.824 44.9086 139.807 44.8503C139.79 44.792 139.79 44.7301 139.808 44.672ZM143.2 50.4C143.616 50.4064 144.03 50.3415 144.424 50.208C144.756 50.0935 145.062 49.917 145.328 49.688C145.559 49.487 145.745 49.2387 145.872 48.96C145.99 48.7095 146.053 48.4367 146.056 48.16V47.92L143.296 48.4C142.873 48.4506 142.467 48.5925 142.104 48.816C141.986 48.8996 141.89 49.0115 141.826 49.1414C141.762 49.2713 141.731 49.4152 141.736 49.56C141.735 49.698 141.776 49.833 141.855 49.9463C141.934 50.0596 142.046 50.1454 142.176 50.192C142.499 50.3323 142.848 50.4032 143.2 50.4Z" fill="#455A64"/>
<path d="M156 54.6481C156.295 54.647 156.589 54.604 156.872 54.5201C157.163 54.4344 157.435 54.2931 157.672 54.1041C157.918 53.9059 158.121 53.6612 158.272 53.3841C158.431 53.0665 158.511 52.7152 158.504 52.3601V51.6081C158.374 51.7503 158.232 51.8814 158.08 52.0001C157.883 52.1579 157.668 52.2921 157.44 52.4001C157.161 52.5316 156.869 52.6334 156.568 52.7041C156.198 52.7878 155.82 52.8281 155.44 52.8241C154.808 52.8345 154.181 52.7004 153.608 52.4321C153.074 52.1803 152.597 51.8208 152.208 51.3761C151.815 50.9287 151.506 50.4137 151.296 49.8561C151.071 49.2814 150.944 48.6729 150.92 48.0561C150.92 47.8561 150.92 47.6161 150.92 47.3521C150.92 47.0881 150.92 46.8401 150.92 46.6401C150.944 46.0233 151.071 45.4149 151.296 44.8401C151.508 44.2835 151.817 43.7688 152.208 43.3201C152.595 42.8763 153.069 42.5169 153.6 42.2641C154.173 41.9959 154.8 41.8618 155.432 41.8721C155.812 41.8682 156.19 41.9084 156.56 41.9921C156.861 42.0628 157.153 42.1647 157.432 42.2961C157.66 42.4041 157.875 42.5384 158.072 42.6961C158.224 42.8149 158.366 42.946 158.496 43.0881V42.6241C158.498 42.4797 158.556 42.3417 158.657 42.2388C158.759 42.136 158.896 42.0762 159.04 42.0721H160.584C160.729 42.078 160.866 42.1381 160.968 42.2404C161.07 42.3426 161.13 42.4796 161.136 42.6241V52.1361C161.183 52.8158 161.084 53.4977 160.847 54.1363C160.61 54.7749 160.239 55.3558 159.76 55.8401C158.711 56.7182 157.366 57.1643 156 57.0881C155.35 57.0929 154.702 56.9985 154.08 56.8081C153.535 56.6504 153.018 56.4045 152.552 56.0801C152.143 55.8055 151.79 55.4552 151.512 55.0481C151.267 54.6959 151.12 54.2842 151.088 53.8561C151.082 53.7847 151.092 53.7127 151.118 53.6459C151.145 53.5792 151.186 53.5197 151.24 53.4721C151.345 53.3703 151.486 53.313 151.632 53.3121H153.016C153.106 53.3102 153.196 53.3262 153.279 53.3592C153.363 53.3922 153.44 53.4414 153.504 53.5041C153.64 53.6321 153.752 53.7521 153.848 53.8561C154.039 54.1011 154.286 54.296 154.568 54.4241C155.024 54.6018 155.512 54.6783 156 54.6481ZM153.6 46.7841C153.56 47.1617 153.56 47.5425 153.6 47.9201C153.606 48.6331 153.893 49.3148 154.4 49.8161C154.872 50.2056 155.469 50.4104 156.08 50.3921C156.692 50.41 157.288 50.1989 157.752 49.8001C157.991 49.5875 158.184 49.3293 158.322 49.0408C158.459 48.7523 158.537 48.4393 158.552 48.1201C158.582 47.8545 158.595 47.5874 158.592 47.3201C158.595 47.0529 158.581 46.7858 158.552 46.5201C158.519 45.8963 158.244 45.3099 157.785 44.8856C157.327 44.4614 156.721 44.2327 156.096 44.2481C155.485 44.2299 154.888 44.4346 154.416 44.8241C154.155 45.0786 153.947 45.3835 153.807 45.7204C153.667 46.0573 153.596 46.4192 153.6 46.7841Z" fill="#455A64"/>
<path d="M163.416 47.352C163.412 46.6227 163.531 45.8979 163.768 45.208C163.991 44.563 164.342 43.9698 164.8 43.464C165.243 42.9644 165.789 42.5661 166.4 42.296C167.052 42.019 167.752 41.8762 168.46 41.8762C169.168 41.8762 169.869 42.019 170.52 42.296C171.123 42.5546 171.667 42.9329 172.12 43.408C172.558 43.8878 172.901 44.4473 173.128 45.056C173.362 45.6884 173.482 46.3576 173.48 47.032V47.944C173.483 48.0158 173.47 48.0873 173.442 48.1536C173.415 48.2199 173.373 48.2794 173.32 48.328C173.272 48.3815 173.212 48.4242 173.146 48.4531C173.08 48.4821 173.008 48.4967 172.936 48.496H166.16C166.157 48.7745 166.223 49.0493 166.352 49.296C166.478 49.5324 166.656 49.7374 166.872 49.896C167.098 50.0642 167.353 50.189 167.624 50.264C167.908 50.3447 168.201 50.3851 168.496 50.384C168.85 50.3936 169.204 50.3477 169.544 50.248C169.784 50.1745 170.011 50.0638 170.216 49.92C170.33 49.8315 170.453 49.7563 170.584 49.696C170.707 49.65 170.837 49.6282 170.968 49.632H172.568C172.714 49.6329 172.855 49.6902 172.96 49.792C173.016 49.8395 173.059 49.9002 173.086 49.9687C173.112 50.0372 173.121 50.1112 173.112 50.184C173.065 50.4473 172.958 50.6964 172.8 50.912C172.559 51.2509 172.261 51.5458 171.92 51.784C171.472 52.0945 170.981 52.3396 170.464 52.512C169.822 52.7245 169.148 52.8273 168.472 52.816C167.765 52.8274 167.062 52.694 166.408 52.424C165.796 52.1744 165.249 51.7887 164.808 51.296C164.35 50.8069 163.996 50.2299 163.768 49.6C163.523 48.8762 163.404 48.116 163.416 47.352ZM168.392 44.304C168.048 44.2941 167.705 44.3539 167.384 44.48C167.124 44.5804 166.887 44.7329 166.688 44.928C166.503 45.0995 166.353 45.3062 166.248 45.536C166.15 45.7376 166.085 45.9537 166.056 46.176H170.64C170.61 45.9582 170.56 45.7439 170.488 45.536C170.413 45.3083 170.287 45.1006 170.12 44.928C169.934 44.7316 169.708 44.5786 169.456 44.48C169.117 44.3507 168.755 44.2909 168.392 44.304Z" fill="#455A64"/>
<path d="M190.112 52.072C190.113 52.1442 190.1 52.2158 190.073 52.2827C190.046 52.3496 190.006 52.4105 189.955 52.4619C189.905 52.5133 189.845 52.554 189.778 52.5819C189.711 52.6097 189.64 52.6241 189.568 52.6241H188C187.928 52.6248 187.858 52.611 187.792 52.5835C187.726 52.556 187.666 52.5153 187.616 52.4641C187.563 52.4137 187.52 52.3529 187.491 52.2855C187.462 52.2181 187.448 52.1454 187.448 52.072V46.9201C187.485 46.2263 187.285 45.5407 186.88 44.9761C186.668 44.7246 186.4 44.5273 186.096 44.4007C185.793 44.2741 185.464 44.2218 185.136 44.2481C184.818 44.2326 184.5 44.2901 184.208 44.4163C183.915 44.5425 183.655 44.734 183.448 44.9761C183.011 45.5268 182.789 46.2178 182.824 46.9201V52.072C182.826 52.1449 182.813 52.2173 182.785 52.2848C182.757 52.3523 182.716 52.4133 182.664 52.4641C182.614 52.515 182.554 52.5554 182.488 52.5828C182.422 52.6103 182.351 52.6243 182.28 52.6241H180.8C180.729 52.6243 180.658 52.6103 180.592 52.5828C180.526 52.5554 180.466 52.515 180.416 52.4641C180.364 52.4133 180.322 52.3523 180.295 52.2848C180.267 52.2173 180.254 52.1449 180.256 52.072V42.624C180.253 42.5523 180.266 42.4808 180.294 42.4145C180.321 42.3482 180.363 42.2887 180.416 42.24C180.465 42.1865 180.524 42.1439 180.59 42.115C180.656 42.086 180.728 42.0714 180.8 42.072H182.344C182.416 42.0714 182.488 42.086 182.554 42.115C182.62 42.1439 182.679 42.1865 182.728 42.24C182.781 42.2887 182.823 42.3482 182.85 42.4145C182.878 42.4808 182.891 42.5523 182.888 42.624V43.088C183.25 42.731 183.669 42.4364 184.128 42.216C184.654 41.9738 185.229 41.8561 185.808 41.872C186.518 41.8486 187.225 41.9797 187.88 42.256C188.402 42.4877 188.86 42.8417 189.216 43.288C189.563 43.7339 189.808 44.2498 189.936 44.8C190.082 45.3943 190.155 46.0042 190.152 46.616L190.112 52.072Z" fill="#455A64"/>
<path d="M197.456 41.8721C198.144 41.8609 198.827 41.9776 199.472 42.2161C200.049 42.4435 200.578 42.7773 201.032 43.2001C201.47 43.6043 201.829 44.0874 202.088 44.6241C202.354 45.1694 202.509 45.7623 202.544 46.3681C202.554 46.5226 202.554 46.6776 202.544 46.8321V47.9601C202.554 48.1119 202.554 48.2642 202.544 48.4161C202.494 49.0203 202.337 49.6108 202.08 50.1601C201.828 50.6945 201.472 51.1732 201.032 51.5681C200.575 51.977 200.046 52.2972 199.472 52.5121C198.177 52.9632 196.767 52.9632 195.472 52.5121C194.883 52.3028 194.34 51.9823 193.872 51.5681C193.435 51.1728 193.081 50.6941 192.832 50.1601C192.573 49.6113 192.413 49.0208 192.36 48.4161C192.36 48.2934 192.36 48.1414 192.36 47.9601C192.36 47.7761 192.36 47.5921 192.36 47.4001C192.36 47.2081 192.36 47.0241 192.36 46.8321C192.36 46.6401 192.36 46.4881 192.36 46.3681C192.403 45.7635 192.557 45.1721 192.816 44.6241C193.076 44.0874 193.434 43.6043 193.872 43.2001C194.34 42.7835 194.883 42.4603 195.472 42.2481C196.105 42.0025 196.777 41.8751 197.456 41.8721ZM199.912 46.4321C199.884 46.069 199.784 45.7153 199.616 45.3921C199.474 45.134 199.278 44.91 199.04 44.7361C198.817 44.5712 198.56 44.4566 198.288 44.4001C198.026 44.3386 197.758 44.3064 197.488 44.3041C197.219 44.3059 196.95 44.3381 196.688 44.4001C196.416 44.4566 196.16 44.5712 195.936 44.7361C195.694 44.9056 195.497 45.1305 195.36 45.3921C195.189 45.7138 195.088 46.0683 195.064 46.4321C195.064 46.5441 195.064 46.6801 195.064 46.8401C195.064 47.0001 195.064 47.1761 195.064 47.3521C195.064 47.5281 195.064 47.6961 195.064 47.8641C195.057 47.9973 195.057 48.1308 195.064 48.2641C195.087 48.628 195.188 48.9827 195.36 49.3041C195.499 49.5663 195.696 49.7934 195.936 49.9681C196.163 50.1266 196.418 50.2406 196.688 50.3041C196.951 50.3597 197.219 50.3892 197.488 50.3921C197.757 50.3888 198.025 50.3593 198.288 50.3041C198.558 50.2406 198.813 50.1266 199.04 49.9681C199.276 49.7891 199.472 49.5629 199.616 49.3041C199.785 48.9813 199.886 48.6273 199.912 48.2641C199.912 48.1681 199.912 48.0321 199.912 47.8641V46.8401C199.928 46.6801 199.92 46.5441 199.912 46.4001V46.4321Z" fill="#455A64"/>
<path d="M208.304 48.8002C208.286 49.1664 208.406 49.5261 208.64 49.8082C208.812 49.9524 209.011 50.0602 209.225 50.1248C209.44 50.1895 209.665 50.2097 209.888 50.1842H211.128C211.2 50.183 211.271 50.1966 211.337 50.2241C211.403 50.2517 211.462 50.2925 211.512 50.3442C211.563 50.394 211.604 50.4538 211.631 50.5198C211.659 50.5858 211.673 50.6567 211.672 50.7282V52.0642C211.673 52.1363 211.66 52.2079 211.633 52.2748C211.606 52.3418 211.566 52.4027 211.516 52.454C211.465 52.5054 211.405 52.5462 211.338 52.574C211.272 52.6019 211.2 52.6162 211.128 52.6162H209.6C208.542 52.686 207.497 52.3547 206.672 51.6882C206.307 51.3199 206.026 50.8766 205.849 50.3889C205.672 49.9013 205.604 49.381 205.648 48.8642V44.5122H204.304C204.16 44.5081 204.022 44.4484 203.921 44.3455C203.82 44.2426 203.762 44.1046 203.76 43.9602V42.6242C203.762 42.4798 203.82 42.3417 203.921 42.2389C204.022 42.136 204.16 42.0763 204.304 42.0722H205.648V38.7682C205.648 38.6239 205.705 38.4855 205.807 38.3835C205.909 38.2815 206.048 38.2242 206.192 38.2242H207.736C207.808 38.223 207.879 38.2366 207.945 38.2641C208.011 38.2917 208.07 38.3325 208.12 38.3842C208.171 38.434 208.212 38.4938 208.239 38.5598C208.267 38.6258 208.281 38.6967 208.28 38.7682V42.0722H210.896C211.041 42.0781 211.178 42.1382 211.28 42.2404C211.382 42.3427 211.442 42.4797 211.448 42.6242V44.0002C211.442 44.1447 211.382 44.2817 211.28 44.384C211.178 44.4862 211.041 44.5463 210.896 44.5522H208.28L208.304 48.8002Z" fill="#455A64"/>
<path d="M221.6 42.0721H224.416C224.489 42.0718 224.562 42.0865 224.629 42.1154C224.697 42.1443 224.758 42.1867 224.808 42.2401C224.859 42.2899 224.9 42.3497 224.927 42.4157C224.955 42.4817 224.969 42.5526 224.968 42.6241V44.0001C224.969 44.0716 224.955 44.1425 224.927 44.2085C224.9 44.2745 224.859 44.3342 224.808 44.3841C224.758 44.4374 224.697 44.4799 224.629 44.5087C224.562 44.5376 224.489 44.5524 224.416 44.5521H221.6V52.1121C221.601 52.1842 221.588 52.2558 221.561 52.3227C221.534 52.3896 221.494 52.4506 221.444 52.5019C221.393 52.5533 221.333 52.5941 221.266 52.6219C221.2 52.6498 221.128 52.6641 221.056 52.6641H219.512C219.441 52.6648 219.37 52.651 219.304 52.6235C219.238 52.596 219.178 52.5554 219.128 52.5041C219.075 52.4537 219.032 52.3929 219.003 52.3255C218.974 52.2581 218.96 52.1854 218.96 52.1121V44.5121H217.6C217.528 44.5133 217.456 44.4989 217.39 44.4699C217.323 44.4409 217.264 44.398 217.216 44.3441C217.163 44.2955 217.121 44.236 217.094 44.1697C217.066 44.1034 217.053 44.0319 217.056 43.9601V42.6241C217.053 42.5523 217.066 42.4808 217.094 42.4145C217.121 42.3482 217.163 42.2887 217.216 42.2401C217.264 42.1862 217.323 42.1433 217.39 42.1143C217.456 42.0853 217.528 42.0709 217.6 42.0721H218.936V41.1601C218.92 40.597 219.018 40.0365 219.224 39.5121C219.392 39.0794 219.667 38.6967 220.024 38.4001C220.4 38.1097 220.834 37.9025 221.296 37.7921C221.836 37.6678 222.39 37.6088 222.944 37.6161H224.592C224.664 37.6149 224.735 37.6285 224.801 37.656C224.867 37.6835 224.927 37.7244 224.976 37.7761C225.027 37.8259 225.068 37.8857 225.095 37.9517C225.123 38.0177 225.137 38.0886 225.136 38.1601V39.4961C225.137 39.5682 225.124 39.6398 225.097 39.7067C225.07 39.7736 225.03 39.8346 224.98 39.8859C224.929 39.9373 224.869 39.9781 224.802 40.0059C224.736 40.0338 224.664 40.0481 224.592 40.0481H223.2C222.79 40.0195 222.38 40.1143 222.024 40.3201C221.874 40.4468 221.758 40.6091 221.687 40.7922C221.615 40.9752 221.591 41.1732 221.616 41.3681L221.6 42.0721Z" fill="#455A64"/>
<path d="M231.2 41.8721C231.888 41.8609 232.571 41.9776 233.216 42.2161C233.782 42.447 234.3 42.7806 234.744 43.2001C235.182 43.6043 235.54 44.0874 235.8 44.6241C236.066 45.1694 236.221 45.7623 236.256 46.3681C236.266 46.5226 236.266 46.6776 236.256 46.8321V47.9601C236.266 48.1119 236.266 48.2642 236.256 48.4161C236.206 49.0203 236.049 49.6108 235.792 50.1601C235.54 50.6945 235.184 51.1732 234.744 51.5681C234.287 51.977 233.758 52.2972 233.184 52.5121C232.546 52.7277 231.873 52.8253 231.2 52.8001C230.51 52.8111 229.824 52.6945 229.176 52.4561C228.602 52.2412 228.073 51.921 227.616 51.5121C227.179 51.1168 226.825 50.6381 226.576 50.1041C226.313 49.5566 226.153 48.9654 226.104 48.3601C226.104 48.2401 226.104 48.0881 226.104 47.9041C226.104 47.7201 226.104 47.5361 226.104 47.3441C226.104 47.1521 226.104 46.9681 226.104 46.7761C226.104 46.5841 226.104 46.4321 226.104 46.3121C226.139 45.7063 226.294 45.1134 226.56 44.5681C226.816 44.0539 227.163 43.5904 227.584 43.2001C228.04 42.7887 228.569 42.4659 229.144 42.2481C229.8 41.9948 230.497 41.8673 231.2 41.8721ZM233.6 46.4001C233.575 46.0376 233.477 45.6839 233.312 45.3601C233.17 45.0997 232.97 44.8753 232.728 44.7041C232.507 44.5394 232.253 44.4247 231.984 44.3681C231.722 44.3066 231.453 44.2744 231.184 44.2721C230.915 44.2735 230.646 44.3057 230.384 44.3681C230.112 44.4246 229.856 44.5392 229.632 44.7041C229.39 44.8736 229.193 45.0985 229.056 45.3601C228.885 45.6818 228.784 46.0363 228.76 46.4001C228.76 46.5121 228.76 46.6481 228.76 46.8081C228.76 46.9681 228.76 47.1441 228.76 47.3201C228.76 47.4961 228.76 47.6641 228.76 47.8321C228.753 47.9653 228.753 48.0988 228.76 48.2321C228.783 48.596 228.884 48.9507 229.056 49.2721C229.195 49.5343 229.392 49.7614 229.632 49.9361C229.859 50.0946 230.114 50.2086 230.384 50.2721C230.647 50.3282 230.915 50.3577 231.184 50.3601C231.453 50.3568 231.721 50.3273 231.984 50.2721C232.251 50.2084 232.504 50.0943 232.728 49.9361C232.969 49.7597 233.168 49.5331 233.312 49.2721C233.478 48.9487 233.576 48.5948 233.6 48.2321C233.61 48.0989 233.61 47.9652 233.6 47.8321V46.8401C233.611 46.6936 233.611 46.5465 233.6 46.4001Z" fill="#455A64"/>
<path d="M238.488 42.624C238.49 42.4796 238.548 42.3416 238.649 42.2387C238.751 42.1359 238.888 42.0761 239.032 42.072H240.576C240.721 42.0779 240.858 42.138 240.96 42.2403C241.062 42.3425 241.122 42.4795 241.128 42.624V47.776C241.093 48.4614 241.272 49.1407 241.64 49.72C241.839 49.9744 242.098 50.175 242.395 50.3036C242.691 50.4321 243.015 50.4845 243.336 50.456C243.649 50.4737 243.961 50.4161 244.246 50.288C244.531 50.16 244.782 49.9651 244.976 49.72C245.381 49.1554 245.581 48.4698 245.544 47.776V42.624C245.55 42.4795 245.61 42.3425 245.712 42.2403C245.815 42.138 245.952 42.0779 246.096 42.072H247.632C247.706 42.0717 247.778 42.0865 247.846 42.1154C247.913 42.1443 247.974 42.1867 248.024 42.24C248.075 42.2899 248.116 42.3496 248.144 42.4156C248.171 42.4816 248.185 42.5525 248.184 42.624V52.072C248.185 52.1448 248.172 52.2171 248.144 52.2845C248.117 52.352 248.076 52.4133 248.025 52.4648C247.973 52.5162 247.912 52.5569 247.845 52.5842C247.777 52.6116 247.705 52.6251 247.632 52.624H246.096C246.025 52.6248 245.954 52.6109 245.888 52.5834C245.822 52.5559 245.762 52.5153 245.712 52.464C245.659 52.4137 245.616 52.3529 245.588 52.2855C245.559 52.218 245.544 52.1454 245.544 52.072V51.608C245.2 51.9277 244.812 52.1971 244.392 52.408C243.879 52.6734 243.306 52.8029 242.728 52.784C242.026 52.8075 241.327 52.6764 240.68 52.4C240.169 52.1699 239.723 51.815 239.384 51.368C239.049 50.9184 238.812 50.4033 238.688 49.856C238.551 49.2605 238.484 48.6511 238.488 48.04V42.624Z" fill="#455A64"/>
<path d="M260.88 52.072C260.881 52.1442 260.868 52.2158 260.841 52.2827C260.814 52.3496 260.774 52.4105 260.723 52.4619C260.673 52.5133 260.613 52.554 260.546 52.5819C260.479 52.6097 260.408 52.6241 260.336 52.6241H258.792C258.72 52.6248 258.65 52.611 258.584 52.5835C258.518 52.556 258.458 52.5153 258.408 52.4641C258.355 52.4137 258.312 52.3529 258.283 52.2855C258.254 52.2181 258.24 52.1454 258.24 52.072V46.9201C258.277 46.2263 258.077 45.5407 257.672 44.9761C257.46 44.7246 257.192 44.5273 256.888 44.4007C256.585 44.2741 256.256 44.2218 255.928 44.2481C255.61 44.2326 255.292 44.2901 255 44.4163C254.707 44.5425 254.447 44.734 254.24 44.9761C253.803 45.5268 253.581 46.2178 253.616 46.9201V52.072C253.618 52.1449 253.605 52.2173 253.577 52.2848C253.549 52.3523 253.508 52.4133 253.456 52.4641C253.406 52.515 253.346 52.5554 253.28 52.5828C253.214 52.6103 253.143 52.6243 253.072 52.6241H251.528C251.457 52.6243 251.386 52.6103 251.32 52.5828C251.254 52.5554 251.194 52.515 251.144 52.4641C251.092 52.4133 251.051 52.3523 251.023 52.2848C250.995 52.2173 250.982 52.1449 250.984 52.072V42.624C250.981 42.5523 250.994 42.4808 251.022 42.4145C251.049 42.3482 251.091 42.2887 251.144 42.24C251.193 42.1865 251.252 42.1439 251.318 42.115C251.384 42.086 251.456 42.0714 251.528 42.072H253.072C253.144 42.0714 253.216 42.086 253.282 42.115C253.348 42.1439 253.407 42.1865 253.456 42.24C253.509 42.2887 253.551 42.3482 253.578 42.4145C253.606 42.4808 253.619 42.5523 253.616 42.624V43.088C253.978 42.731 254.397 42.4364 254.856 42.216C255.382 41.9738 255.957 41.8561 256.536 41.872C257.246 41.8486 257.953 41.9797 258.608 42.256C259.13 42.4877 259.588 42.8417 259.944 43.288C260.291 43.7339 260.536 44.2498 260.664 44.8C260.81 45.3943 260.883 46.0042 260.88 46.616V52.072Z" fill="#455A64"/>
<path d="M267.632 41.872C268.011 41.8673 268.39 41.9075 268.76 41.992C269.06 42.0627 269.353 42.1646 269.632 42.296C269.86 42.404 270.075 42.5382 270.272 42.696C270.426 42.8126 270.568 42.9439 270.696 43.088V38.768C270.696 38.6959 270.71 38.6245 270.738 38.5579C270.766 38.4914 270.807 38.4311 270.858 38.3805C270.909 38.3298 270.97 38.2899 271.037 38.2631C271.104 38.2362 271.176 38.2229 271.248 38.224H272.8C272.872 38.2213 272.943 38.2342 273.01 38.2618C273.076 38.2894 273.135 38.3311 273.184 38.384C273.238 38.4322 273.281 38.4914 273.31 38.5577C273.339 38.624 273.353 38.6957 273.352 38.768V52.072C273.352 52.1453 273.337 52.218 273.309 52.2854C273.28 52.3529 273.237 52.4136 273.184 52.464C273.134 52.5153 273.074 52.5559 273.008 52.5834C272.942 52.6109 272.871 52.6247 272.8 52.624H271.264C271.191 52.6251 271.119 52.6115 271.051 52.5842C270.984 52.5568 270.923 52.5162 270.871 52.4647C270.82 52.4132 270.779 52.352 270.752 52.2845C270.724 52.217 270.711 52.1448 270.712 52.072V51.608C270.584 51.7521 270.442 51.8833 270.288 52C270.091 52.1577 269.876 52.292 269.648 52.4C269.369 52.5314 269.076 52.6333 268.776 52.704C268.406 52.7884 268.027 52.8287 267.648 52.824C267.015 52.8343 266.389 52.7003 265.816 52.432C265.281 52.1802 264.805 51.8207 264.416 51.376C264.025 50.9265 263.717 50.412 263.504 49.856C263.279 49.2812 263.152 48.6728 263.128 48.056C263.128 47.856 263.128 47.616 263.128 47.352C263.128 47.088 263.128 46.84 263.128 46.64C263.152 46.0232 263.279 45.4147 263.504 44.84C263.719 44.2848 264.027 43.7706 264.416 43.32C264.805 42.8753 265.281 42.5158 265.816 42.264C266.384 41.9981 267.005 41.8641 267.632 41.872ZM265.744 46.784C265.704 47.1616 265.704 47.5424 265.744 47.92C265.753 48.6322 266.04 49.3127 266.544 49.816C267.016 50.2042 267.613 50.4088 268.224 50.392C268.838 50.4088 269.436 50.1979 269.904 49.8C270.142 49.5873 270.336 49.3292 270.473 49.0407C270.611 48.7522 270.689 48.4392 270.704 48.12C270.733 47.8544 270.747 47.5872 270.744 47.32C270.746 47.0528 270.733 46.7856 270.704 46.52C270.671 45.8961 270.396 45.3097 269.937 44.8855C269.478 44.4612 268.872 44.2325 268.248 44.248C267.637 44.2312 267.04 44.4358 266.568 44.824C266.306 45.0789 266.099 45.3837 265.957 45.7204C265.816 46.0571 265.743 46.4188 265.744 46.784Z" fill="#455A64"/>
<path d="M157.152 72.608C157.218 72.6073 157.284 72.6205 157.344 72.6467C157.405 72.6728 157.459 72.7115 157.504 72.76C157.551 72.8058 157.588 72.8606 157.612 72.9211C157.637 72.9817 157.649 73.0466 157.648 73.112V75.08C157.649 75.1454 157.637 75.2103 157.612 75.2709C157.588 75.3314 157.551 75.3862 157.504 75.432C157.459 75.4806 157.405 75.5192 157.344 75.5454C157.284 75.5715 157.218 75.5847 157.152 75.584H148.352C148.286 75.5852 148.22 75.5723 148.16 75.5461C148.099 75.5198 148.045 75.481 148 75.432C147.952 75.3866 147.914 75.3321 147.888 75.2716C147.862 75.2111 147.848 75.1459 147.848 75.08V63.08C147.848 63.0141 147.862 62.9489 147.888 62.8885C147.914 62.828 147.952 62.7734 148 62.728C148.045 62.6791 148.099 62.6402 148.16 62.6139C148.22 62.5877 148.286 62.5748 148.352 62.576H157.016C157.149 62.58 157.274 62.6344 157.368 62.7281C157.462 62.8217 157.516 62.9476 157.52 63.08V65.04C157.521 65.1072 157.508 65.1739 157.482 65.2359C157.456 65.2978 157.417 65.3537 157.368 65.4C157.322 65.4467 157.268 65.4836 157.207 65.5084C157.146 65.5331 157.082 65.5452 157.016 65.544H151.288V67.552H156.608C156.674 67.5508 156.74 67.5637 156.801 67.5899C156.861 67.6162 156.916 67.655 156.96 67.704C157.008 67.7494 157.046 67.804 157.072 67.8645C157.098 67.9249 157.112 67.9901 157.112 68.056V70.024C157.112 70.0899 157.098 70.1551 157.072 70.2156C157.046 70.2761 157.008 70.3306 156.96 70.376C156.916 70.425 156.861 70.4638 156.801 70.4901C156.74 70.5163 156.674 70.5292 156.608 70.528H151.288V72.608H157.152Z" fill="#292A73"/>
<path d="M165.328 62.5681C166.067 62.5583 166.805 62.647 167.52 62.8321C168.116 62.9905 168.675 63.2621 169.168 63.6321C169.621 63.9839 169.978 64.4431 170.208 64.9681C170.459 65.5625 170.582 66.2031 170.568 66.8481C170.6 67.6604 170.4 68.4649 169.992 69.1681C169.608 69.7817 169.051 70.2686 168.392 70.5681L170.696 74.9921C170.732 75.0559 170.751 75.1273 170.752 75.2001C170.752 75.3083 170.709 75.4121 170.633 75.4886C170.556 75.5651 170.452 75.6081 170.344 75.6081H167.816C167.721 75.6178 167.626 75.6078 167.535 75.5789C167.444 75.55 167.36 75.5028 167.288 75.4401C167.188 75.3399 167.102 75.2269 167.032 75.1041L164.968 71.1041H163.2V75.1041C163.201 75.1695 163.189 75.2345 163.165 75.295C163.14 75.3555 163.103 75.4103 163.056 75.4561C163.011 75.5047 162.957 75.5433 162.896 75.5695C162.836 75.5957 162.77 75.6088 162.704 75.6081H160.304C160.238 75.6088 160.173 75.5957 160.112 75.5695C160.051 75.5433 159.997 75.5047 159.952 75.4561C159.905 75.4103 159.869 75.3555 159.844 75.295C159.819 75.2345 159.807 75.1695 159.808 75.1041V63.1041C159.807 63.0387 159.819 62.9738 159.844 62.9133C159.869 62.8527 159.905 62.7979 159.952 62.7521C159.997 62.7036 160.051 62.665 160.112 62.6388C160.173 62.6126 160.238 62.5994 160.304 62.6001L165.328 62.5681ZM163.224 68.1681H165.328C165.779 68.1861 166.226 68.0839 166.624 67.8721C166.799 67.7558 166.939 67.5935 167.028 67.4029C167.117 67.2124 167.152 67.0011 167.128 66.7921C167.152 66.5843 167.117 66.3739 167.028 66.1846C166.939 65.9953 166.799 65.8345 166.624 65.7201C166.226 65.5083 165.779 65.4062 165.328 65.4241H163.2L163.224 68.1681Z" fill="#292A73"/>
<path d="M178.248 62.5681C178.987 62.5583 179.724 62.647 180.44 62.8321C181.036 62.9905 181.595 63.2621 182.088 63.6321C182.543 63.9816 182.901 64.4415 183.128 64.9681C183.379 65.5625 183.502 66.2031 183.488 66.8481C183.519 67.6604 183.32 68.4649 182.912 69.1681C182.528 69.7817 181.971 70.2686 181.312 70.5681L183.616 74.9921C183.651 75.0559 183.671 75.1273 183.672 75.2001C183.672 75.3083 183.629 75.4121 183.552 75.4886C183.476 75.5651 183.372 75.6081 183.264 75.6081H180.736C180.641 75.6178 180.545 75.6078 180.455 75.5789C180.364 75.55 180.28 75.5028 180.208 75.4401C180.108 75.3399 180.022 75.2269 179.952 75.1041L177.888 71.1041H176.184V75.1041C176.184 75.17 176.17 75.2352 176.144 75.2957C176.118 75.3562 176.08 75.4107 176.032 75.4561C175.987 75.5047 175.933 75.5433 175.872 75.5695C175.811 75.5957 175.746 75.6088 175.68 75.6081H173.24C173.174 75.6088 173.108 75.5957 173.048 75.5695C172.987 75.5433 172.933 75.5047 172.888 75.4561C172.841 75.4103 172.804 75.3555 172.78 75.295C172.755 75.2345 172.743 75.1695 172.744 75.1041V63.1041C172.743 63.0387 172.755 62.9738 172.78 62.9133C172.804 62.8527 172.841 62.7979 172.888 62.7521C172.933 62.7036 172.987 62.665 173.048 62.6388C173.108 62.6126 173.174 62.5994 173.24 62.6001L178.248 62.5681ZM176.152 68.1681H178.248C178.699 68.1861 179.146 68.0839 179.544 67.8721C179.719 67.7558 179.859 67.5935 179.948 67.4029C180.037 67.2124 180.071 67.0011 180.048 66.7921C180.072 66.5843 180.037 66.3739 179.948 66.1846C179.859 65.9953 179.719 65.8345 179.544 65.7201C179.146 65.5083 178.699 65.4062 178.248 65.4241H176.152V68.1681Z" fill="#292A73"/>
<path d="M185.2 67.4241C185.235 66.7489 185.389 66.0853 185.656 65.4641C185.916 64.8558 186.304 64.3103 186.792 63.8641C187.309 63.3894 187.916 63.0223 188.576 62.7841C190.145 62.2507 191.847 62.2507 193.416 62.7841C194.076 63.0242 194.682 63.3911 195.2 63.8641C195.686 64.3106 196.071 64.8562 196.328 65.4641C196.602 66.0828 196.757 66.7478 196.784 67.4241C196.784 67.9521 196.824 68.5121 196.824 69.0961C196.824 69.6801 196.824 70.2241 196.784 70.6961C196.756 71.3748 196.602 72.0422 196.328 72.6641C196.064 73.2681 195.68 73.8124 195.2 74.2641C194.679 74.7391 194.066 75.1037 193.4 75.3361C191.829 75.8589 190.131 75.8589 188.56 75.3361C187.899 75.1036 187.292 74.7389 186.776 74.2641C186.294 73.8127 185.907 73.2685 185.64 72.6641C185.374 72.0398 185.22 71.3737 185.184 70.6961C185.184 70.1921 185.184 69.6481 185.184 69.0961C185.184 68.5441 185.176 67.9521 185.2 67.4241ZM193.36 70.6241C193.36 70.4001 193.36 70.1521 193.4 69.8801C193.44 69.6081 193.4 69.3281 193.4 69.0401C193.4 68.7521 193.4 68.4801 193.4 68.2401C193.4 68.0001 193.4 67.7361 193.36 67.5201C193.34 67.2293 193.275 66.9433 193.168 66.6721C193.068 66.4167 192.915 66.1852 192.72 65.9921C192.516 65.7933 192.274 65.6381 192.008 65.5361C191.685 65.4182 191.344 65.3612 191 65.3681C190.659 65.3603 190.32 65.4173 190 65.5361C189.731 65.6361 189.486 65.7914 189.28 65.9921C189.088 66.1873 188.936 66.4183 188.832 66.6721C188.725 66.9433 188.66 67.2293 188.64 67.5201C188.64 67.7334 188.624 67.9734 188.592 68.2401C188.592 68.5041 188.592 68.7841 188.592 69.0401C188.592 69.2961 188.592 69.6081 188.592 69.8801C188.592 70.1521 188.592 70.4001 188.64 70.6241C188.67 71.1968 188.896 71.7419 189.28 72.1681C189.508 72.3848 189.779 72.551 190.075 72.6558C190.372 72.7606 190.687 72.8016 191 72.7761C191.312 72.8025 191.627 72.7619 191.922 72.657C192.217 72.5522 192.487 72.3855 192.712 72.1681C193.089 71.7429 193.316 71.2064 193.36 70.6401V70.6241Z" fill="#292A73"/>
<path d="M204.52 62.568C205.259 62.5587 205.996 62.6475 206.712 62.832C207.305 62.9897 207.862 63.2614 208.352 63.632C208.807 63.9833 209.167 64.4425 209.4 64.968C209.651 65.5624 209.774 66.203 209.76 66.848C209.791 67.6603 209.592 68.4648 209.184 69.168C208.79 69.7887 208.219 70.2764 207.544 70.568L209.848 74.9921C209.885 75.0555 209.907 75.1267 209.912 75.2001C209.911 75.2542 209.9 75.3077 209.878 75.3572C209.856 75.4067 209.824 75.4512 209.784 75.4881C209.747 75.5267 209.702 75.5573 209.652 75.5779C209.603 75.5986 209.55 75.6088 209.496 75.6081H206.968C206.873 75.6177 206.777 75.6078 206.687 75.5789C206.596 75.55 206.512 75.5027 206.44 75.4401C206.342 75.3401 206.259 75.227 206.192 75.1041L204.128 71.104H202.4V75.1041C202.396 75.2364 202.342 75.3623 202.248 75.456C202.154 75.5496 202.028 75.604 201.896 75.6081H199.496C199.364 75.604 199.238 75.5496 199.144 75.456C199.05 75.3623 198.996 75.2364 198.992 75.1041V63.104C198.996 62.9716 199.05 62.8458 199.144 62.7521C199.238 62.6584 199.364 62.6041 199.496 62.6L204.52 62.568ZM202.416 68.168H204.52C204.968 68.1861 205.413 68.0839 205.808 67.872C205.986 67.7581 206.128 67.5964 206.219 67.4054C206.309 67.2145 206.344 67.002 206.32 66.792C206.344 66.5833 206.308 66.3721 206.218 66.1826C206.127 65.993 205.985 65.8327 205.808 65.72C205.413 65.5082 204.968 65.406 204.52 65.424H202.4L202.416 68.168Z" fill="#292A73"/>
<path d="M221.976 75.5841C221.909 75.5849 221.842 75.5718 221.78 75.5457C221.718 75.5195 221.662 75.4808 221.616 75.4321C221.569 75.3863 221.532 75.3315 221.508 75.2709C221.483 75.2104 221.471 75.1454 221.472 75.0801V73.1841H215.616C215.551 73.1853 215.486 73.1732 215.425 73.1484C215.365 73.1236 215.31 73.0868 215.264 73.0401C215.215 72.9938 215.177 72.9379 215.15 72.8759C215.124 72.814 215.111 72.7473 215.112 72.6801V70.7121C215.102 70.4263 215.187 70.1452 215.352 69.9121L220.912 62.9041C220.996 62.7953 221.099 62.7031 221.216 62.6321C221.339 62.586 221.469 62.5642 221.6 62.5681H224.408C224.474 62.5668 224.54 62.5798 224.601 62.606C224.661 62.6322 224.716 62.6711 224.76 62.7201C224.808 62.7654 224.846 62.82 224.872 62.8805C224.898 62.941 224.912 63.0062 224.912 63.0721V70.2081H226.512C226.645 70.2104 226.771 70.265 226.864 70.3601C226.911 70.4058 226.948 70.4607 226.972 70.5212C226.997 70.5817 227.009 70.6467 227.008 70.7121V72.6801C227.009 72.8143 226.957 72.9436 226.864 73.0401C226.818 73.086 226.763 73.1224 226.702 73.1471C226.642 73.1718 226.577 73.1844 226.512 73.1841H224.912V75.0801C224.912 75.146 224.898 75.2111 224.872 75.2716C224.846 75.3321 224.808 75.3867 224.76 75.4321C224.716 75.481 224.661 75.5199 224.601 75.5461C224.54 75.5723 224.474 75.5853 224.408 75.5841H221.976ZM221.6 70.2081V66.7921L218.888 70.2081H221.6Z" fill="#292A73"/>
<path d="M234 62.4001C234.819 62.3813 235.634 62.5198 236.4 62.8081C237.025 63.053 237.592 63.4264 238.064 63.9041C238.501 64.3622 238.836 64.9075 239.048 65.5041C239.265 66.1257 239.395 66.7747 239.432 67.4321C239.432 67.9601 239.432 68.5201 239.432 69.1041C239.432 69.6881 239.432 70.2321 239.432 70.7041C239.395 71.3616 239.265 72.0105 239.048 72.6321C238.84 73.2305 238.504 73.7765 238.064 74.2321C237.592 74.7098 237.025 75.0832 236.4 75.3281C234.846 75.872 233.154 75.872 231.6 75.3281C230.975 75.0832 230.408 74.7098 229.936 74.2321C229.496 73.7765 229.16 73.2305 228.952 72.6321C228.735 72.0105 228.606 71.3616 228.568 70.7041C228.568 70.2001 228.568 69.6561 228.568 69.1041C228.568 68.5521 228.568 67.9601 228.568 67.4321C228.606 66.7747 228.735 66.1257 228.952 65.5041C229.164 64.9075 229.499 64.3622 229.936 63.9041C230.408 63.4264 230.975 63.053 231.6 62.8081C232.367 62.5198 233.181 62.3813 234 62.4001ZM236 70.6401C236.048 69.5841 236.048 68.5441 236 67.5121C235.98 67.2255 235.931 66.9415 235.856 66.6641C235.797 66.4179 235.688 66.1865 235.536 65.9841C235.375 65.7865 235.17 65.6302 234.936 65.5281C234.642 65.4069 234.326 65.3496 234.008 65.3601C233.69 65.3504 233.374 65.4076 233.08 65.5281C232.847 65.6302 232.641 65.7865 232.48 65.9841C232.328 66.1878 232.217 66.4186 232.152 66.6641C232.072 66.9401 232.026 67.2249 232.016 67.5121C231.96 68.554 231.96 69.5982 232.016 70.6401C232.029 70.9286 232.069 71.2152 232.136 71.4961C232.202 71.7427 232.316 71.9738 232.472 72.1761C232.636 72.3718 232.845 72.5255 233.08 72.6241C233.374 72.7447 233.69 72.8019 234.008 72.7921C234.326 72.8026 234.642 72.7454 234.936 72.6241C235.172 72.5255 235.38 72.3718 235.544 72.1761C235.7 71.9738 235.814 71.7427 235.88 71.4961C235.947 71.2152 235.987 70.9286 236 70.6401Z" fill="#292A73"/>
<path d="M247.832 75.584C247.7 75.58 247.574 75.5256 247.48 75.4319C247.386 75.3383 247.332 75.2124 247.328 75.08V73.184H241.472C241.407 73.1853 241.342 73.1731 241.281 73.1484C241.221 73.1236 241.166 73.0867 241.12 73.04C241.024 72.9443 240.97 72.8152 240.968 72.68V70.712C240.957 70.4248 241.044 70.1425 241.216 69.912L246.768 62.904C246.852 62.7929 246.958 62.7003 247.08 62.632C247.2 62.5851 247.328 62.5633 247.456 62.568H250.264C250.396 62.572 250.522 62.6264 250.616 62.7201C250.71 62.8137 250.764 62.9396 250.768 63.072V70.208H252.368C252.5 70.212 252.626 70.2664 252.72 70.3601C252.814 70.4537 252.868 70.5796 252.872 70.712V72.68C252.87 72.8152 252.816 72.9443 252.72 73.04C252.674 73.0867 252.619 73.1236 252.559 73.1484C252.498 73.1731 252.433 73.1853 252.368 73.184H250.768V75.08C250.764 75.2124 250.71 75.3383 250.616 75.4319C250.522 75.5256 250.396 75.58 250.264 75.584H247.832ZM247.424 70.208V66.792L244.712 70.208H247.424Z" fill="#292A73"/>
</svg>
